<?xml version="1.0" encoding="UTF-8" standalone="no"?>
<!-- Created with Inkscape (http://www.inkscape.org/) -->

<svg
   xmlns:dc="http://purl.org/dc/elements/1.1/"
   xmlns:cc="http://creativecommons.org/ns#"
   xmlns:rdf="http://www.w3.org/1999/02/22-rdf-syntax-ns#"
   xmlns:svg="http://www.w3.org/2000/svg"
   xmlns="http://www.w3.org/2000/svg"
   xmlns:sodipodi="http://sodipodi.sourceforge.net/DTD/sodipodi-0.dtd"
   xmlns:inkscape="http://www.inkscape.org/namespaces/inkscape"
   width="512"
   height="512"
   viewBox="0 0 512.00001 512.00001"
   id="svg3350"
   version="1.1"
   inkscape:version="0.91 r13725"
   sodipodi:docname="cart.svg">
  <defs
     id="defs3352" />
  <sodipodi:namedview
     id="base"
     pagecolor="#ffffff"
     bordercolor="#666666"
     borderopacity="1.0"
     inkscape:pageopacity="0.0"
     inkscape:pageshadow="2"
     inkscape:zoom="0.35"
     inkscape:cx="6.4285714"
     inkscape:cy="520"
     inkscape:document-units="px"
     inkscape:current-layer="layer1"
     showgrid="false"
     units="px"
     inkscape:window-width="1536"
     inkscape:window-height="801"
     inkscape:window-x="-8"
     inkscape:window-y="-8"
     inkscape:window-maximized="1" />
  <metadata
     id="metadata3355">
    <rdf:RDF>
      <cc:Work
         rdf:about="">
        <dc:format>image/svg+xml</dc:format>
        <dc:type
           rdf:resource="http://purl.org/dc/dcmitype/StillImage" />
        <dc:title></dc:title>
      </cc:Work>
    </rdf:RDF>
  </metadata>
  <g
     inkscape:label="Vrstva 1"
     inkscape:groupmode="layer"
     id="layer1"
     transform="translate(0,-540.36216)">
    <path
       inkscape:connector-curvature="0"
       style="clip-rule:evenodd;fill-rule:evenodd"
       d="m 490.14179,772.10843 -341.41791,55.97015 c -31.71642,27.98507 1.87064,52.2388 1.87064,52.2388 l 333.95025,1.86568 0,46.64179 -367.53731,-3.73135 c -14.92537,-9.32835 -26.10945,-39.1791 -29.85075,-65.2985 -3.73134,-26.11941 24.25374,-54.10448 24.25374,-54.10448 l -57.82588,-218.28358 -31.72636,0 -7.46269,-41.04478 80.22886,0 20.51741,67.16418 382.46269,-1.86567 -7.46269,160.44776 z M 182.30597,945.61589 c 27.81965,0 50.37313,22.54851 50.37313,50.37314 0,27.81967 -22.55348,50.37317 -50.37313,50.37317 -27.82463,0 -50.36816,-22.5535 -50.36816,-50.37317 0,-27.82463 22.54353,-50.37314 50.36816,-50.37314 z m 246.26865,0 c 27.82961,0 50.37314,22.54851 50.37314,50.37314 0,27.81967 -22.54353,50.37317 -50.37314,50.37317 -27.81467,0 -50.37313,-22.5535 -50.37313,-50.37317 0,-27.82463 22.55846,-50.37314 50.37313,-50.37314 z"
       id="path5" />
  </g>
</svg>
