<?xml version="1.0" encoding="UTF-8" standalone="no"?>
<!-- Created with Inkscape (http://www.inkscape.org/) -->

<svg
   xmlns:dc="http://purl.org/dc/elements/1.1/"
   xmlns:cc="http://creativecommons.org/ns#"
   xmlns:rdf="http://www.w3.org/1999/02/22-rdf-syntax-ns#"
   xmlns:svg="http://www.w3.org/2000/svg"
   xmlns="http://www.w3.org/2000/svg"
   xmlns:sodipodi="http://sodipodi.sourceforge.net/DTD/sodipodi-0.dtd"
   xmlns:inkscape="http://www.inkscape.org/namespaces/inkscape"
   width="512"
   height="512"
   viewBox="0 0 512.00001 512.00001"
   id="svg3350"
   version="1.1"
   inkscape:version="0.91 r13725"
   sodipodi:docname="info.svg">
  <defs
     id="defs3352" />
  <sodipodi:namedview
     id="base"
     pagecolor="#ffffff"
     bordercolor="#666666"
     borderopacity="1.0"
     inkscape:pageopacity="0.0"
     inkscape:pageshadow="2"
     inkscape:zoom="0.35"
     inkscape:cx="6.4285714"
     inkscape:cy="520"
     inkscape:document-units="px"
     inkscape:current-layer="layer1"
     showgrid="false"
     units="px"
     inkscape:window-width="1536"
     inkscape:window-height="801"
     inkscape:window-x="-8"
     inkscape:window-y="-8"
     inkscape:window-maximized="1" />
  <metadata
     id="metadata3355">
    <rdf:RDF>
      <cc:Work
         rdf:about="">
        <dc:format>image/svg+xml</dc:format>
        <dc:type
           rdf:resource="http://purl.org/dc/dcmitype/StillImage" />
        <dc:title></dc:title>
      </cc:Work>
    </rdf:RDF>
  </metadata>
  <g
     inkscape:label="Vrstva 1"
     inkscape:groupmode="layer"
     id="layer1"
     transform="translate(0,-540.36216)">
    <path
       inkscape:connector-curvature="0"
       d="M 506,796.36213 C 505.87286,933.97016 394.79473,1046.4469 255.83049,1046.3622 117.79862,1046.2772 5.95763,934.86016 6.00001,796.23499 6.04241,657.44028 118.34956,546.40451 256.04239,546.36213 394.03188,546.31973 506,658.37264 506,796.36213 Z m -206.8147,54.75505 c 0,-30.81031 -0.0424,-61.57824 0.0424,-92.38854 0.0424,-11.65452 -4.11087,-21.52908 -12.71402,-29.19987 -13.56162,-12.1207 -29.327,-14.6635 -46.23665,-8.68792 -16.1468,5.72131 -26.95372,21.23242 -26.86896,38.77777 0.33904,61.36633 0.16952,122.73266 0.0848,184.09904 0,34.6669 29.70842,40.5153 43.90575,40.4729 21.35955,-0.085 42.33768,-17.291 41.91388,-41.9986 -0.55094,-30.34415 -0.12714,-60.73066 -0.12714,-91.07478 z m 2.92422,-196.89779 c -0.0424,-25.59756 -20.46957,-45.98237 -46.10951,-45.98237 -25.68231,0 -46.19427,20.55433 -46.15189,46.23665 0.0424,25.38566 20.76624,46.06713 46.19427,46.06713 25.59756,0 46.06713,-20.59671 46.06713,-46.32141 z"
       id="path4" />
  </g>
</svg>
