<?xml version="1.0" encoding="UTF-8" standalone="no"?>
<!-- Created with Inkscape (http://www.inkscape.org/) -->

<svg
   xmlns:dc="http://purl.org/dc/elements/1.1/"
   xmlns:cc="http://creativecommons.org/ns#"
   xmlns:rdf="http://www.w3.org/1999/02/22-rdf-syntax-ns#"
   xmlns:svg="http://www.w3.org/2000/svg"
   xmlns="http://www.w3.org/2000/svg"
   xmlns:sodipodi="http://sodipodi.sourceforge.net/DTD/sodipodi-0.dtd"
   xmlns:inkscape="http://www.inkscape.org/namespaces/inkscape"
   width="512"
   height="512"
   viewBox="0 0 512.00001 512.00001"
   id="svg3697"
   version="1.1"
   inkscape:version="0.91 r13725"
   sodipodi:docname="search.svg">
  <defs
     id="defs3699" />
  <sodipodi:namedview
     id="base"
     pagecolor="#ffffff"
     bordercolor="#666666"
     borderopacity="1.0"
     inkscape:pageopacity="0.0"
     inkscape:pageshadow="2"
     inkscape:zoom="0.49497475"
     inkscape:cx="173.59997"
     inkscape:cy="340.33291"
     inkscape:document-units="px"
     inkscape:current-layer="layer1"
     showgrid="false"
     units="px"
     inkscape:window-width="1366"
     inkscape:window-height="715"
     inkscape:window-x="-8"
     inkscape:window-y="541"
     inkscape:window-maximized="1" />
  <metadata
     id="metadata3702">
    <rdf:RDF>
      <cc:Work
         rdf:about="">
        <dc:format>image/svg+xml</dc:format>
        <dc:type
           rdf:resource="http://purl.org/dc/dcmitype/StillImage" />
        <dc:title></dc:title>
      </cc:Work>
    </rdf:RDF>
  </metadata>
  <g
     inkscape:label="Vrstva 1"
     inkscape:groupmode="layer"
     id="layer1"
     transform="translate(0,-540.36216)">
    <g
       transform="matrix(19.802764,0,0,19.802764,-9192.4306,218.75869)"
       id="g3391">
      <path
         id="path3393"
         d="m 482.938,31.195 c 0.566,-0.567 0.991,-1.207 1.274,-1.919 0.283,-0.712 0.426,-1.439 0.426,-2.18 0,-0.74 -0.143,-1.471 -0.426,-2.193 -0.283,-0.722 -0.708,-1.366 -1.274,-1.933 -0.567,-0.566 -1.206,-0.987 -1.919,-1.261 -0.713,-0.274 -1.443,-0.411 -2.193,-0.411 -0.75,0 -1.48,0.137 -2.193,0.411 -0.713,0.274 -1.352,0.694 -1.919,1.261 -0.566,0.567 -0.991,1.211 -1.274,1.933 -0.283,0.722 -0.426,1.453 -0.426,2.193 0,0.741 0.143,1.467 0.426,2.18 0.283,0.713 0.708,1.353 1.274,1.919 0.567,0.566 1.206,0.991 1.919,1.274 0.713,0.284 1.443,0.425 2.193,0.425 0.75,0 1.48,-0.141 2.193,-0.425 0.713,-0.282 1.352,-0.707 1.919,-1.274 l 0,0 z m 3.291,-11.514 c 1.023,1.023 1.791,2.18 2.303,3.468 0.512,1.289 0.768,2.6 0.768,3.935 0,1.334 -0.256,2.646 -0.768,3.934 -0.512,1.288 -1.279,2.444 -2.303,3.468 -0.822,0.822 -1.736,1.48 -2.742,1.974 -1.005,0.494 -2.047,0.822 -3.125,0.987 -1.078,0.165 -2.161,0.155 -3.248,-0.027 -1.088,-0.183 -2.125,-0.53 -3.112,-1.042 l -4.716,4.715 c -0.273,0.274 -0.575,0.475 -0.904,0.603 -0.329,0.128 -0.672,0.192 -1.027,0.192 -0.357,0 -0.699,-0.064 -1.029,-0.192 -0.328,-0.128 -0.63,-0.329 -0.904,-0.603 -0.273,-0.274 -0.475,-0.576 -0.604,-0.905 -0.127,-0.329 -0.191,-0.672 -0.191,-1.028 0,-0.356 0.064,-0.699 0.191,-1.028 0.129,-0.329 0.33,-0.63 0.604,-0.905 l 4.551,-4.551 c -0.64,-1.005 -1.088,-2.084 -1.344,-3.235 -0.256,-1.151 -0.324,-2.303 -0.205,-3.454 0.119,-1.151 0.43,-2.271 0.932,-3.358 0.504,-1.087 1.193,-2.07 2.07,-2.947 1.023,-1.005 2.18,-1.764 3.469,-2.275 1.288,-0.512 2.6,-0.768 3.934,-0.768 1.334,0 2.646,0.256 3.934,0.768 1.286,0.51 2.442,1.268 3.466,2.274 l 0,0 z m 0,0"
         inkscape:connector-curvature="0" />
    </g>
  </g>
</svg>
