<?xml version="1.0" encoding="UTF-8" standalone="no"?>
<!-- Created with Inkscape (http://www.inkscape.org/) -->

<svg
   xmlns:dc="http://purl.org/dc/elements/1.1/"
   xmlns:cc="http://creativecommons.org/ns#"
   xmlns:rdf="http://www.w3.org/1999/02/22-rdf-syntax-ns#"
   xmlns:svg="http://www.w3.org/2000/svg"
   xmlns="http://www.w3.org/2000/svg"
   xmlns:sodipodi="http://sodipodi.sourceforge.net/DTD/sodipodi-0.dtd"
   xmlns:inkscape="http://www.inkscape.org/namespaces/inkscape"
   width="512"
   height="512"
   viewBox="0 0 512.00001 512.00001"
   id="svg3350"
   version="1.1"
   inkscape:version="0.91 r13725"
   sodipodi:docname="search.svg">
  <defs
     id="defs3352" />
  <sodipodi:namedview
     id="base"
     pagecolor="#ffffff"
     bordercolor="#666666"
     borderopacity="1.0"
     inkscape:pageopacity="0.0"
     inkscape:pageshadow="2"
     inkscape:zoom="0.49497475"
     inkscape:cx="886.97901"
     inkscape:cy="89.615544"
     inkscape:document-units="px"
     inkscape:current-layer="layer1"
     showgrid="false"
     units="px"
     inkscape:window-width="1536"
     inkscape:window-height="801"
     inkscape:window-x="-8"
     inkscape:window-y="-8"
     inkscape:window-maximized="1" />
  <metadata
     id="metadata3355">
    <rdf:RDF>
      <cc:Work
         rdf:about="">
        <dc:format>image/svg+xml</dc:format>
        <dc:type
           rdf:resource="http://purl.org/dc/dcmitype/StillImage" />
        <dc:title></dc:title>
      </cc:Work>
    </rdf:RDF>
  </metadata>
  <g
     inkscape:label="Vrstva 1"
     inkscape:groupmode="layer"
     id="layer1"
     transform="translate(0,-540.36216)">
    <g
       transform="matrix(10.740375,0,0,10.740375,-310.42218,261.07816)"
       id="g3">
      <path
         inkscape:connector-curvature="0"
         d="M 69.902,72.704 58.967,61.769 c -2.997,1.961 -6.579,3.111 -10.444,3.111 -10.539,0 -19.062,-8.542 -19.062,-19.081 0,-10.519 8.522,-19.061 19.062,-19.061 10.521,0 19.06,8.542 19.06,19.061 0,3.679 -1.036,7.107 -2.828,10.011 l 11.013,11.011 c 0.583,0.567 0.094,1.981 -1.076,3.148 l -1.64,1.644 c -1.17,1.167 -2.584,1.656 -3.15,1.091 z M 61.249,45.799 c 0,-7.033 -5.695,-12.727 -12.727,-12.727 -7.033,0 -12.745,5.694 -12.745,12.727 0,7.033 5.712,12.745 12.745,12.745 7.032,0 12.727,-5.711 12.727,-12.745 z"
         id="path5" />
    </g>
  </g>
</svg>
