<?xml version="1.0" standalone="no"?>
<!DOCTYPE svg PUBLIC "-//W3C//DTD SVG 20010904//EN"
 "http://www.w3.org/TR/2001/REC-SVG-20010904/DTD/svg10.dtd">
<svg version="1.0" xmlns="http://www.w3.org/2000/svg"
 width="512.000000pt" height="512.000000pt" viewBox="0 0 512.000000 512.000000"
 preserveAspectRatio="xMidYMid meet">
<metadata>
Created by potrace 1.15, written by Peter Selinger 2001-2017
</metadata>
<g transform="translate(0.000000,512.000000) scale(0.100000,-0.100000)"
fill="#000000" stroke="none">
<path d="M2423 4896 c-179 -44 -332 -193 -379 -370 -16 -60 -18 -192 -3 -256
29 -127 137 -266 255 -327 156 -82 340 -84 488 -5 71 37 187 155 219 222 128
266 24 572 -238 696 -112 54 -229 67 -342 40z"/>
<path d="M1135 4383 c-157 -22 -293 -108 -377 -237 -106 -164 -106 -389 0
-552 101 -155 257 -238 442 -237 141 1 258 51 360 153 125 125 176 305 135
479 -30 128 -126 259 -236 323 -89 52 -234 84 -324 71z"/>
<path d="M3839 4380 c-205 -32 -376 -190 -424 -391 -41 -174 10 -354 135 -479
102 -102 219 -152 360 -153 185 -1 341 82 442 237 106 163 106 388 0 552 -45
69 -127 146 -192 179 -97 49 -221 70 -321 55z"/>
<path d="M563 3065 c-228 -50 -403 -269 -403 -506 0 -224 157 -428 379 -493
62 -18 193 -21 261 -5 118 27 243 116 312 223 54 84 78 169 78 275 0 154 -50
271 -160 375 -130 122 -294 168 -467 131z"/>
<path d="M4334 3055 c-183 -40 -335 -182 -388 -364 -23 -78 -21 -213 4 -293
51 -166 204 -309 370 -347 68 -16 199 -13 261 5 222 65 379 269 379 493 0 239
-175 457 -407 506 -82 18 -138 18 -219 0z"/>
<path d="M1118 1760 c-304 -54 -498 -346 -423 -635 61 -233 259 -386 500 -387
290 -1 515 222 515 512 0 180 -84 335 -234 432 -101 65 -249 97 -358 78z"/>
<path d="M3791 1754 c-243 -65 -408 -295 -387 -541 30 -370 430 -586 758 -411
118 63 200 160 246 292 22 63 24 82 20 181 -6 128 -25 185 -94 282 -46 65
-117 125 -191 162 -97 49 -247 64 -352 35z"/>
<path d="M2430 1234 c-284 -75 -448 -370 -362 -650 79 -258 347 -411 611 -349
260 62 436 323 392 582 -35 200 -186 366 -382 418 -68 19 -188 18 -259 -1z"/>
</g>
</svg>
