<?xml version="1.0" encoding="UTF-8" standalone="no"?>
<!-- Created with Inkscape (http://www.inkscape.org/) -->

<svg
   xmlns:dc="http://purl.org/dc/elements/1.1/"
   xmlns:cc="http://creativecommons.org/ns#"
   xmlns:rdf="http://www.w3.org/1999/02/22-rdf-syntax-ns#"
   xmlns:svg="http://www.w3.org/2000/svg"
   xmlns="http://www.w3.org/2000/svg"
   xmlns:sodipodi="http://sodipodi.sourceforge.net/DTD/sodipodi-0.dtd"
   xmlns:inkscape="http://www.inkscape.org/namespaces/inkscape"
   width="512"
   height="512"
   viewBox="0 0 512.00001 512.00001"
   id="svg3769"
   version="1.1"
   inkscape:version="0.91 r13725"
   sodipodi:docname="user.svg">
  <defs
     id="defs3771" />
  <sodipodi:namedview
     id="base"
     pagecolor="#ffffff"
     bordercolor="#666666"
     borderopacity="1.0"
     inkscape:pageopacity="0.0"
     inkscape:pageshadow="2"
     inkscape:zoom="0.7"
     inkscape:cx="120.63004"
     inkscape:cy="128.85909"
     inkscape:document-units="px"
     inkscape:current-layer="layer1"
     showgrid="false"
     units="px"
     fit-margin-top="0"
     fit-margin-left="0"
     fit-margin-right="0"
     fit-margin-bottom="0"
     inkscape:window-width="1366"
     inkscape:window-height="715"
     inkscape:window-x="-8"
     inkscape:window-y="541"
     inkscape:window-maximized="1" />
  <metadata
     id="metadata3774">
    <rdf:RDF>
      <cc:Work
         rdf:about="">
        <dc:format>image/svg+xml</dc:format>
        <dc:type
           rdf:resource="http://purl.org/dc/dcmitype/StillImage" />
        <dc:title></dc:title>
      </cc:Work>
    </rdf:RDF>
  </metadata>
  <g
     inkscape:label="Vrstva 1"
     inkscape:groupmode="layer"
     id="layer1"
     transform="translate(-206.9892,6.6271419)">
    <g
       transform="matrix(25.114493,0,0,25.114493,-14428.163,-454.13627)"
       id="g3399">
      <path
         id="path3401"
         d="m 592.94,27.988 c 2.795,0 5.081,-2.28 5.081,-5.075 0,-2.789 -2.286,-5.074 -5.081,-5.074 -2.787,0 -5.075,2.286 -5.075,5.074 0,2.795 2.288,5.075 5.075,5.075 l 0,0 z m 0,2.542 c -3.427,0 -10.15,1.648 -10.15,5.075 l 0,2.541 20.307,0 0,-2.541 c 0,-3.427 -6.73,-5.075 -10.157,-5.075 l 0,0 z m 0,0"
         inkscape:connector-curvature="0" />
    </g>
  </g>
</svg>
