<?xml version="1.0" encoding="UTF-8"?>
<svg width="160px" height="48px" viewBox="0 0 160 48" version="1.1" xmlns="http://www.w3.org/2000/svg" xmlns:xlink="http://www.w3.org/1999/xlink">
    <!-- Generator: Sketch Beta 50 (54800) - http://www.bohemiancoding.com/sketch -->
    <title>Shopsys Framework</title>
    <desc>Created with Sketch Beta.</desc>
    <defs></defs>
    <g id="Homepage" stroke="none" stroke-width="1" fill="none" fill-rule="evenodd">
        <g id="Artboard" transform="translate(-160.000000, -7724.000000)" fill-rule="nonzero">
            <g id="Nabízené-pozice" transform="translate(160.000000, 7318.000000)">
                <g id="Shopsys-Framework" transform="translate(0.000000, 406.000000)">
                    <path d="M109.188393,47.2996659 L109.188393,38 L111.121543,38 L111.121543,43.1300424 L113.25938,40.5767336 L115.510931,40.5767336 L112.895493,43.6219642 L115.715618,47.2996659 L113.532295,47.2996659 L111.644631,44.8166316 L111.0988,45.4256778 L111.0988,47.2996659 L109.188393,47.2996659 Z M103.434429,47.2996659 L103.434429,40.5767336 L105.367579,40.5767336 L105.367579,41.4903028 C105.663237,40.8109821 106.368269,40.4127597 107.255243,40.4127597 C107.391701,40.4127597 107.550902,40.4361845 107.755588,40.4596094 L107.755588,42.3335974 C107.550902,42.2867477 107.346215,42.2633229 107.096043,42.2633229 C106.004381,42.2633229 105.344836,42.8957939 105.344836,44.0201867 L105.344836,47.2996659 L103.434429,47.2996659 Z M100.932705,41.4200282 C101.637737,42.0993489 102.001624,42.9426436 102.001624,43.9499122 C102.001624,44.9571808 101.66048,45.8004754 100.932705,46.4797961 C100.227674,47.1591167 99.3634424,47.5104895 98.3627529,47.5104895 C97.3620635,47.5104895 96.4978317,47.1591167 95.7928005,46.4797961 C95.0877693,45.7770505 94.7466251,44.9337559 94.7466251,43.9499122 C94.7466251,42.9426436 95.0877693,42.0993489 95.7928005,41.4200282 C96.4978317,40.7172827 97.3620635,40.3893348 98.3627529,40.3893348 C99.3634424,40.36591 100.204931,40.7172827 100.932705,41.4200282 Z M97.157377,45.1914293 C97.4757782,45.5193772 97.8851511,45.706776 98.3627529,45.706776 C98.8403547,45.706776 99.2497277,45.542802 99.5681288,45.1914293 C99.88653,44.8400565 100.068474,44.441834 100.068474,43.9264873 C100.068474,43.4345654 99.909273,43.0129181 99.5681288,42.6849702 C99.2497277,42.3335974 98.8403547,42.1696235 98.3627529,42.1696235 C97.8851511,42.1696235 97.4757782,42.3335974 97.157377,42.6849702 C96.8389758,43.0129181 96.6570323,43.4345654 96.6570323,43.9264873 C96.6570323,44.441834 96.8389758,44.8634813 97.157377,45.1914293 Z M86.7411095,47.2996659 L84.6715018,40.5767336 L86.4681942,40.5767336 L87.6280843,44.3247098 L88.7424884,40.5767336 L90.2435226,40.5767336 L91.3806697,44.3247098 L92.5405597,40.5767336 L94.3372522,40.5767336 L92.2676444,47.2996659 L90.6756385,47.2996659 L89.5157484,43.4579903 L88.3786013,47.2996659 L86.7411095,47.2996659 Z M77.2573027,43.9264873 C77.2573027,42.872369 77.5984468,42.0056495 78.2579921,41.3731785 C78.9175374,40.7172827 79.7817692,40.3893348 80.8052016,40.3893348 C81.8058911,40.3893348 82.6018941,40.7172827 83.2386964,41.3731785 C83.8527559,42.0290744 84.1711571,42.8255193 84.1711571,43.8093631 C84.1711571,44.0436116 84.1484141,44.2544352 84.1484141,44.441834 L79.2131957,44.441834 C79.2586816,45.238279 79.9182269,45.7536257 80.9416593,45.7536257 C81.5557187,45.7536257 82.0788064,45.542802 82.5336652,45.0977299 L83.6708123,46.1986979 C82.8975523,47.0185676 81.9650917,47.4167901 80.8506875,47.4167901 C79.7817692,47.4167901 78.9175374,47.0888422 78.2579921,46.4797961 C77.5984468,45.8473251 77.2800456,45.0040305 77.2800456,43.9499122 L77.2800456,43.9264873 L77.2573027,43.9264873 Z M82.215264,43.1534672 C82.215264,42.5209962 81.5784617,42.0290744 80.8052016,42.0290744 C79.9637128,42.0290744 79.2814245,42.5209962 79.2131957,43.1534672 L82.215264,43.1534672 Z M65.9540605,47.2996659 L65.9540605,40.5767336 L67.8872105,40.5767336 L67.8872105,41.4200282 C68.1373829,40.834407 68.7969282,40.4361845 69.5929312,40.4361845 C70.4799059,40.4361845 71.0712224,40.7875573 71.3668807,41.5137277 C71.7307677,40.8109821 72.4585419,40.4361845 73.5502031,40.4361845 C75.0512373,40.4361845 75.8699832,41.4668779 75.8699832,43.2237418 L75.8699832,47.2996659 L73.9368331,47.2996659 L73.9368331,43.4579903 C73.9368331,42.6615454 73.595689,42.1930483 72.9588866,42.1930483 C72.3220842,42.1930483 71.8672254,42.7318199 71.8672254,43.5282648 L71.8672254,47.2996659 L69.9340753,47.2996659 L69.9340753,43.4579903 C69.9340753,42.6615454 69.5929312,42.1930483 68.9561288,42.1930483 C68.3420694,42.1930483 67.8872105,42.7318199 67.8872105,43.5282648 L67.8872105,47.2996659 L65.9540605,47.2996659 Z M62.3151897,41.4434531 L62.3151897,40.5767336 L64.2483398,40.5767336 L64.2483398,47.2996659 L62.3151897,47.2996659 L62.3151897,46.4095215 C62.1105032,46.9951428 61.3599862,47.4167901 60.3592967,47.4167901 C59.449579,47.4167901 58.653576,47.0888422 58.0395166,46.4095215 C57.4254572,45.7302008 57.1297989,44.910331 57.1297989,43.9264873 C57.1297989,42.9426436 57.4482001,42.1227738 58.0395166,41.4668779 C58.653576,40.7875573 59.449579,40.4596094 60.3592967,40.4596094 C61.3372432,40.4596094 62.1105032,40.8578318 62.3151897,41.4434531 Z M61.9285597,45.1445796 C62.2697038,44.8166316 62.4289044,44.4184092 62.4289044,43.9499122 C62.4289044,43.4814151 62.2697038,43.0831927 61.9285597,42.7552448 C61.6101585,42.4272968 61.2007856,42.2633229 60.7231838,42.2633229 C60.245582,42.2633229 59.858952,42.4272968 59.5405508,42.7552448 C59.2221496,43.0831927 59.062949,43.4814151 59.062949,43.9499122 C59.062949,44.4184092 59.2221496,44.8166316 59.5405508,45.1445796 C59.858952,45.4725275 60.245582,45.6365014 60.7231838,45.6365014 C61.2007856,45.6130766 61.5874156,45.4491026 61.9285597,45.1445796 Z M51.989894,47.2996659 L51.989894,40.5767336 L53.9230441,40.5767336 L53.9230441,41.4903028 C54.2187023,40.8109821 54.9237335,40.4127597 55.8107083,40.4127597 C55.9471659,40.4127597 56.1063665,40.4361845 56.311053,40.4596094 L56.311053,42.3335974 C56.1063665,42.2867477 55.9016801,42.2633229 55.6515077,42.2633229 C54.5598465,42.2633229 53.9003011,42.8957939 53.9003011,44.0201867 L53.9003011,47.2996659 L51.989894,47.2996659 Z M44.6666667,47.2996659 L44.6666667,38 L50.6253175,38 L50.6253175,39.8739881 L46.6680456,39.8739881 L46.6680456,41.7948259 L50.2614304,41.7948259 L50.2614304,43.6219642 L46.6680456,43.6219642 L46.6680456,47.3230907 L44.6666667,47.3230907 L44.6666667,47.2996659 Z" id="Framework" fill="#FCBD46"></path>
                    <path d="M158.954277,22.0862465 C158.384549,21.3728032 157.678085,20.889503 156.834886,20.6133314 C155.991687,20.3601741 155.148489,20.0840025 154.350868,19.8308453 C153.553248,19.577688 152.846784,19.3015164 152.277055,19.0023305 C151.707326,18.7031446 151.411067,18.2888873 151.411067,17.7595584 C151.411067,17.2302296 151.638959,16.8159722 152.071953,16.5167863 C152.117531,16.493772 152.14032,16.4707577 152.185898,16.4477434 C152.596103,16.2176004 153.097465,16.1025289 153.689983,16.1025289 C154.57876,16.1025289 155.285224,16.3326719 155.832163,16.7929579 C155.832163,16.7929579 155.832163,16.7929579 155.854952,16.8159722 C156.19679,17.1151581 156.493049,17.4373582 156.766519,17.7825727 L157.381826,17.1611867 L159.022645,15.5271715 C158.544073,14.8597568 157.928765,14.3074137 157.176723,13.8931563 C156.174001,13.3177989 155.011754,13.018613 153.712772,13.018613 C153.689983,13.018613 153.689983,13.018613 153.667194,13.018613 C153.598826,13.018613 153.530459,13.018613 153.462091,13.018613 C153.416513,13.018613 153.370935,13.018613 153.325356,13.018613 C153.325356,13.018613 153.302567,13.018613 153.302567,13.018613 C151.86685,13.0876559 150.636236,13.5249275 149.656302,14.330428 C148.562423,15.2049713 148.015483,16.3787005 148.015483,17.8286013 C148.015483,18.887259 148.288953,19.7387881 148.881471,20.429217 C149.4512,21.119646 150.180453,21.5799319 151.023652,21.8561035 C151.86685,22.1092608 152.710049,22.3854324 153.507669,22.6385896 C154.328079,22.8917469 155.011754,23.1679185 155.581483,23.4901187 C156.151211,23.8123189 156.44747,24.2265762 156.44747,24.7328908 C156.44747,25.6994913 155.854952,26.2518345 154.692705,26.4359488 C154.419236,26.4819774 154.122977,26.5049917 153.781139,26.5049917 C152.801206,26.5049917 152.003585,26.2748488 151.388278,25.7915485 C150.886917,25.4003054 150.476712,24.9400195 150.157664,24.4337049 L147.855959,26.7811633 C148.334531,27.5636495 148.995417,28.1850355 149.838616,28.6683358 C150.955284,29.3127361 152.277055,29.6349363 153.803928,29.6349363 C155.558693,29.6349363 157.017199,29.1976646 158.179446,28.3461356 C159.341693,27.4715923 159.911422,26.2978631 159.911422,24.7789194 C159.820265,23.6972474 159.524006,22.7996897 158.954277,22.0862465 Z M139.560707,25.5614055 L134.88893,13.4328703 L131.197087,13.4328703 L137.828731,29.611922 L137.669207,30.5785225 C137.259002,31.6832088 136.712062,32.4887093 136.073966,32.9950238 C135.43587,33.5013384 134.569882,33.7314814 133.498792,33.6624385 L133.498792,36.8614259 C137.099478,37.0685546 139.629074,35.1353536 141.133158,31.0388085 L147.149495,13.409856 L143.571598,13.409856 L139.560707,25.5614055 Z M127.801503,20.6133314 C126.958304,20.3601741 126.115106,20.0840025 125.317485,19.8308453 C124.497076,19.577688 123.813401,19.3015164 123.243672,19.0023305 C122.673943,18.7031446 122.377684,18.2888873 122.377684,17.7595584 C122.377684,17.2302296 122.605576,16.8159722 123.03857,16.5167863 C123.084148,16.493772 123.106937,16.4707577 123.152515,16.4477434 C123.56272,16.2176004 124.086871,16.1025289 124.6566,16.1025289 C125.545377,16.1025289 126.25184,16.3326719 126.79878,16.7929579 C126.79878,16.7929579 126.821569,16.7929579 126.821569,16.8159722 C127.163407,17.1151581 127.459666,17.4373582 127.710346,17.7825727 L129.966473,15.5041572 C129.4879,14.8367425 128.872593,14.2843994 128.120551,13.870142 C127.117828,13.2947846 125.955581,12.9955987 124.6566,12.9955987 C124.565443,12.9955987 124.497076,12.9955987 124.405919,12.9955987 C124.337551,12.9955987 124.291973,12.9955987 124.223606,12.9955987 C122.787889,13.0646416 121.557275,13.5019132 120.577341,14.3074137 C119.483461,15.181957 118.936522,16.3556862 118.936522,17.805587 C118.936522,18.8642447 119.209992,19.7157738 119.80251,20.4062027 C120.372239,21.0966317 121.078702,21.5569176 121.94469,21.8330892 C122.787889,22.0862465 123.631088,22.3624181 124.428708,22.6155753 C125.249118,22.8687326 125.932792,23.1449042 126.502521,23.4671044 C127.07225,23.7893046 127.368509,24.2035619 127.368509,24.7098765 C127.368509,25.676477 126.775991,26.2288202 125.613744,26.4129346 C125.340274,26.4589631 125.044015,26.4819774 124.702178,26.4819774 C123.699455,26.4819774 122.901835,26.2518345 122.309317,25.7685342 C121.807955,25.3772911 121.39775,24.9170052 121.078702,24.4106906 L118.731419,26.7811633 C119.209992,27.5636495 119.870877,28.1850355 120.714076,28.6683358 C121.830744,29.3127361 123.152515,29.6349363 124.679389,29.6349363 C126.434154,29.6349363 127.89266,29.1976646 129.054906,28.3461356 C130.217153,27.4715923 130.786882,26.2978631 130.786882,24.7789194 C130.786882,23.6972474 130.513412,22.7996897 129.920894,22.0862465 C129.373955,21.3497889 128.667491,20.8664887 127.801503,20.6133314 Z M108.840926,13.018613 C106.470854,13.018613 104.647722,13.9161706 103.371529,15.7112859 L103.371529,13.4328703 L99.9987342,13.4328703 L99.9987342,36.8614259 L103.371529,36.8614259 L103.371529,26.988292 C104.647722,28.760393 106.470854,29.6349363 108.840926,29.6349363 C110.983107,29.6349363 112.829028,28.8294359 114.355902,27.2414493 C115.882775,25.6304484 116.634817,23.6742331 116.634817,21.3267746 C116.634817,19.0023305 115.882775,17.0461152 114.355902,15.4351143 C112.829028,13.8241134 111.005896,13.018613 108.840926,13.018613 Z M111.849095,24.9630338 C110.914739,25.9296343 109.729703,26.3899203 108.316776,26.3899203 C106.903848,26.3899203 105.718812,25.90662 104.784457,24.9630338 C103.850101,23.9964332 103.371529,22.7996897 103.371529,21.3497889 C103.371529,19.8998882 103.850101,18.6801303 104.784457,17.7365441 C105.718812,16.7699436 106.903848,16.3096576 108.316776,16.3096576 C109.729703,16.3096576 110.914739,16.7929579 111.849095,17.7365441 C112.78345,18.7031446 113.262022,19.8998882 113.262022,21.3497889 C113.262022,22.7766754 112.78345,23.9964332 111.849095,24.9630338 Z M88.6497352,13.018613 C86.3480306,13.018613 84.4109524,13.8241134 82.7929225,15.4121 C81.1748925,17.0231009 80.3772721,18.9793162 80.3772721,21.3267746 C80.3772721,23.6742331 81.1748925,25.6304484 82.7929225,27.2414493 C84.3881633,28.8524502 86.3480306,29.6349363 88.6497352,29.6349363 C90.974229,29.6349363 92.9340963,28.8294359 94.5293371,27.2414493 C96.1245779,25.6304484 96.9221984,23.6742331 96.9221984,21.3267746 C96.9221984,18.9793162 96.1245779,17.0231009 94.5293371,15.4121 C92.9340963,13.8241134 90.974229,13.018613 88.6497352,13.018613 Z M92.1364759,24.8939909 C91.2021205,25.8375771 90.0398736,26.3208774 88.6725244,26.3208774 C87.3051751,26.3208774 86.1429282,25.8375771 85.2085729,24.8939909 C84.2742175,23.9504046 83.7956453,22.7536611 83.7956453,21.3267746 C83.7956453,19.8998882 84.2742175,18.7031446 85.2085729,17.7595584 C86.1429282,16.8159722 87.3051751,16.3326719 88.6725244,16.3326719 C90.0626628,16.3326719 91.2021205,16.8159722 92.1364759,17.7595584 C93.0708312,18.7031446 93.5494035,19.8998882 93.5494035,21.3267746 C93.5494035,22.7766754 93.0708312,23.9504046 92.1364759,24.8939909 Z M71.6262367,13.018613 C69.4156887,13.018613 67.7976587,13.8241134 66.7721467,15.4581286 L66.7721467,7.10393833 L63.3993518,7.10393833 L63.3993518,29.2436932 L66.7721467,29.2436932 L66.7721467,20.7514172 C66.7721467,19.2094592 67.1367732,18.0587443 67.8660261,17.3222867 C68.5952791,16.5858292 69.5524236,16.1945861 70.7374596,16.1945861 C71.8313391,16.1945861 72.6745378,16.5167863 73.3126341,17.1381724 C73.9507304,17.7825727 74.2469894,18.6801303 74.2469894,19.8538596 L74.2469894,29.2206789 L77.6197843,29.2206789 L77.6197843,19.5316594 C77.6197843,17.5064011 77.0728446,15.9184146 75.956176,14.7446853 C74.8622966,13.5939704 73.4265799,13.018613 71.6262367,13.018613 Z M58.4541053,18.6341017 C58.3173703,18.5420446 58.1578462,18.4499874 58.0211113,18.3579302 C57.8843764,18.265873 57.7020631,18.1508015 57.5197499,18.0587443 C57.5197499,18.0587443 57.5197499,18.0587443 57.4969608,18.0587443 C57.1095451,17.8516156 56.7449187,17.6675012 56.3802922,17.5294154 C55.7194067,17.2762582 54.876208,16.9770723 53.8734852,16.5858292 C53.7367502,16.5398006 53.6000153,16.493772 53.4632804,16.4707577 C53.3721238,16.4247291 53.258178,16.4017148 53.1442322,16.3556862 C51.9819853,16.0104717 51.0704191,15.6652573 50.4095336,15.3200428 C50.318377,15.2740142 50.2272204,15.2279856 50.1588529,15.181957 C49.9993289,15.0898998 49.8625939,14.9978426 49.7486482,14.9287997 C49.1105518,14.4685138 48.7915037,13.8241134 48.7915037,13.018613 C48.7915037,12.1670839 49.1105518,11.4996693 49.725859,11.016369 C49.8853831,10.8782832 50.0676963,10.7632118 50.2727987,10.6711546 C50.8197384,10.394983 51.4578348,10.2568972 52.232666,10.2568972 C53.1214431,10.2568972 53.8962743,10.4410116 54.579949,10.7862261 C54.579949,10.7862261 54.579949,10.7862261 54.579949,10.7862261 C54.8078405,10.9012975 55.0129429,11.0623976 55.2180453,11.2234977 C55.2408344,11.246512 55.2636236,11.2695263 55.2864128,11.2925406 C55.4915151,11.4536407 55.6738284,11.6607694 55.8561416,11.8678981 C56.1751898,12.2131125 56.7677078,12.9955987 56.7677078,13.018613 L59.2517257,10.5100545 C58.6136293,9.49742535 57.7932198,8.64589631 56.790497,8.00149596 C56.6081837,7.88642447 56.4030813,7.77135298 56.2207681,7.65628149 C56.1524006,7.61025289 56.0840332,7.5872386 55.9928765,7.54121 C54.8534188,6.96585254 53.554437,6.66666667 52.1187202,6.66666667 C50.1816421,6.66666667 48.5180338,7.24202412 47.1506845,8.39273903 C45.7833352,9.54345395 45.0768715,11.1084262 45.0768715,13.0646416 C45.0768715,14.0542564 45.2591847,14.9287997 45.601022,15.6652573 C45.9656485,16.4017148 46.489799,17.0231009 47.219052,17.5064011 C47.4241544,17.6444869 47.6292568,17.7825727 47.8343592,17.8976442 C47.8571483,17.9206585 47.8799375,17.9206585 47.9027266,17.9436728 C47.9938833,17.9897014 48.0850399,18.0587443 48.1761965,18.1047729 C48.1989856,18.1277872 48.244564,18.1277872 48.2673531,18.1508015 C48.3357206,18.1968301 48.404088,18.2198444 48.4724555,18.2428587 C48.7915037,18.4039588 49.0877627,18.5420446 49.3840217,18.657116 C50.0449072,18.9102733 50.8881059,19.2094592 51.8908287,19.6007023 C52.0959311,19.6697452 52.3238226,19.7387881 52.5061359,19.7848167 C52.5061359,19.7848167 52.528925,19.7848167 52.5517142,19.807831 C52.5972925,19.8308453 52.66566,19.8538596 52.7340274,19.8538596 C54.146955,20.3141455 55.172467,20.7514172 55.7877742,21.1426603 C56.5170271,21.6259605 56.8816536,22.3163895 56.8816536,23.2139471 C56.8816536,24.0654761 56.5398163,24.7789194 55.8561416,25.3082482 C55.8333525,25.3312625 55.8105633,25.3312625 55.8105633,25.3542768 C55.8105633,25.3542768 55.8105633,25.3542768 55.7877742,25.3542768 C55.1040995,25.8605914 54.1241659,26.1137487 52.8023949,26.1137487 C52.3010335,26.1137487 51.8452504,26.0677201 51.4122565,25.9986772 C50.4779011,25.8145628 49.6574915,25.4693483 49.0193952,24.8939909 C48.8826603,24.7789194 48.7459254,24.6408336 48.6091904,24.5257621 C48.6091904,24.5257621 48.5864013,24.5027478 48.5864013,24.5027478 C48.4268772,24.3416477 48.2901423,24.1805476 48.1306182,23.9964332 C47.7887809,23.5591616 47.4697327,23.0758613 47.219052,22.5695467 L44.6666667,25.1471481 C45.2819738,26.3899203 46.1707509,27.4025494 47.3557869,28.1850355 C47.5608893,28.3231213 47.7659917,28.4381928 47.9938833,28.5532643 C48.0850399,28.5992929 48.1761965,28.6453215 48.2673531,28.6913501 C48.3812989,28.7373787 48.4724555,28.7834073 48.5864013,28.8294359 C49.7942265,29.3587647 51.1615758,29.611922 52.7340274,29.611922 C55.0585212,29.611922 56.9272319,29.0365645 58.3629486,27.8628353 C58.4085269,27.8168067 58.4541053,27.7937924 58.4996836,27.7477638 C58.5224727,27.7247496 58.5452619,27.7247496 58.568051,27.7017353 C59.9354003,26.5510203 60.6418641,24.9860481 60.6418641,23.0298327 C60.6418641,22.0402179 60.4595509,21.1656746 60.1177135,20.429217 C59.7075088,19.7387881 59.160569,19.117402 58.4541053,18.6341017 Z" id="Shopsys" fill="#0F00A0"></path>
                    <path d="M22.9417249,32.0792541 L20.5202797,29.6578089 L27.2135198,22.9417249 L20.5202797,16.225641 L22.9417249,13.8041958 L32.0792541,22.9417249 L22.9417249,32.0792541 Z M13.8041958,22.9417249 L4.66666667,13.8041958 L13.8041958,4.66666667 L16.225641,7.08811189 L9.50955711,13.8041958 L16.225641,20.5202797 L13.8041958,22.9417249 Z" id="Shape" fill="#0F00A0"></path>
                    <path d="M36.3636364,18.1818182 L32.9545455,18.1818182 C32.9545455,10.0454545 26.3409091,3.40909091 18.1818182,3.40909091 L18.1818182,0 C28.2045455,0 36.3636364,8.15909091 36.3636364,18.1818182 Z M18.1818182,36.3636364 C8.15909091,36.3636364 0,28.2045455 0,18.1818182 L3.40909091,18.1818182 C3.40909091,26.3181818 10.0227273,32.9545455 18.1818182,32.9545455 L18.1818182,36.3636364 Z" id="Shape" fill="#FCBD46"></path>
                </g>
            </g>
        </g>
    </g>
</svg>