<svg class="web__header__logo__svg" viewBox="0 0 701 208" version="1.1" xmlns="http://www.w3.org/2000/svg" xmlns:xlink="http://www.w3.org/1999/xlink">
    <g id="Page-1" stroke="none" stroke-width="1" fill="none" fill-rule="evenodd">
        <g id="Artboard" fill-rule="nonzero">
            <g id="shopsys-logo-framework-color">
                <g id="icon">
                    <polygon id="Shape" fill="#FFFFFF" points="60 100 20 60 60 20 70.6 30.6 41.2 60 70.6 89.4"></polygon>
                    <g id="Group" fill="#FCBE46">
                        <path d="M160,80 L145,80 C145,44.2 115.9,15 80,15 L80,0 C124.1,0 160,35.9 160,80 Z" id="Shape"></path>
                        <path d="M80,160 C35.9,160 0,124.1 0,80 L15,80 C15,115.8 44.1,145 80,145 L80,160 Z" id="Shape"></path>
                    </g>
                    <polygon id="Shape" fill="#FFFFFF" points="100 140 89.4 129.4 118.7 100 89.4 70.6 100 60 140 100"></polygon>
                </g>
                <g id="ss" transform="translate(195.000000, 29.000000)" fill="#FFFFFF">
                    <path d="M118.3,28.4 C108.6,28.4 101.5,31.9 97,39 L97,2.7 L82.2,2.7 L82.2,98.9 L97,98.9 L97,62 C97,55.3 98.6,50.4 101.8,47.1 C105,43.9 109.2,42.2 114.4,42.2 C119.2,42.2 122.9,43.6 125.7,46.3 C128.5,49.1 129.8,53 129.8,58.1 L129.8,98.8 L144.6,98.8 L144.6,56.7 C144.6,47.9 142.2,41 137.3,35.9 C132.5,30.9 126.2,28.4 118.3,28.4 Z" id="Shape"></path>
                    <path d="M193,28.4 C182.9,28.4 174.4,31.9 167.3,38.8 C160.2,45.8 156.7,54.3 156.7,64.5 C156.7,74.7 160.2,83.2 167.3,90.2 C174.4,97.2 182.9,100.6 193,100.6 C203.2,100.6 211.8,97.1 218.8,90.2 C225.8,83.2 229.3,74.7 229.3,64.5 C229.3,54.3 225.8,45.8 218.8,38.8 C211.8,31.9 203.2,28.4 193,28.4 Z M208.3,80 C204.2,84.1 199.1,86.2 193.1,86.2 C187.1,86.2 182,84.1 177.9,80 C173.8,75.9 171.7,70.7 171.7,64.5 C171.7,58.3 173.8,53.1 177.9,49 C182,44.9 187.1,42.8 193.1,42.8 C199.2,42.8 204.2,44.9 208.3,49 C212.4,53.1 214.5,58.3 214.5,64.5 C214.5,70.8 212.4,75.9 208.3,80 Z" id="Shape"></path>
                    <path d="M281.6,28.4 C271.2,28.4 263.2,32.3 257.6,40.1 L257.6,30.2 L242.8,30.2 L242.8,132 L257.6,132 L257.6,89.1 C263.2,96.8 271.2,100.6 281.6,100.6 C291,100.6 299.1,97.1 305.8,90.2 C312.5,83.2 315.8,74.7 315.8,64.5 C315.8,54.4 312.5,45.9 305.8,38.9 C299.1,31.9 291.1,28.4 281.6,28.4 Z M294.8,80.3 C290.7,84.5 285.5,86.5 279.3,86.5 C273.1,86.5 267.9,84.4 263.8,80.3 C259.7,76.1 257.6,70.9 257.6,64.6 C257.6,58.3 259.7,53 263.8,48.9 C267.9,44.7 273.1,42.7 279.3,42.7 C285.5,42.7 290.7,44.8 294.8,48.9 C298.9,53.1 301,58.3 301,64.6 C301,70.9 298.9,76.1 294.8,80.3 Z" id="Shape"></path>
                    <path d="M416.4,82.9 L395.9,30.2 L379.7,30.2 L408.8,100.5 L408.1,104.7 C406.3,109.5 403.9,113 401.1,115.2 C398.3,117.4 394.5,118.4 389.8,118.2 L389.8,132 C405.6,132.9 416.7,124.5 423.3,106.7 L449.7,30.1 L434,30.1 L416.4,82.9 Z" id="Shape"></path>
                    <path d="M501.5,67.8 C499,64.7 495.9,62.6 492.2,61.4 C488.5,60.3 484.8,59.1 481.3,58 C477.7,56.9 474.7,55.7 472.2,54.4 C469.7,53.1 468.4,51.3 468.4,49 C468.4,46.7 469.4,44.9 471.3,43.6 C471.5,43.5 471.6,43.4 471.8,43.3 C473.6,42.3 475.9,41.8 478.4,41.8 C482.3,41.8 485.4,42.8 487.8,44.8 C487.8,44.8 487.8,44.8 487.9,44.9 C489.4,46.2 490.7,47.6 491.8,49.1 L494.5,46.4 L501.7,39.3 C501.7,39.3 501.7,39.3 501.7,39.3 C499.6,36.4 496.9,34 493.6,32.2 C489.2,29.7 484.1,28.4 478.4,28.4 C478.3,28.4 478.3,28.4 478.2,28.4 C477.9,28.4 477.6,28.4 477.3,28.4 C477.1,28.4 476.9,28.4 476.7,28.4 C476.7,28.4 476.6,28.4 476.6,28.4 C476.6,28.4 476.6,28.4 476.6,28.4 C470.3,28.7 464.9,30.6 460.5,34.1 C455.7,37.9 453.3,43 453.3,49.3 C453.3,53.9 454.5,57.6 457.1,60.6 C459.6,63.6 462.8,65.6 466.5,66.8 C470.2,67.9 473.9,69.1 477.4,70.2 C481,71.3 484,72.5 486.5,73.9 C489,75.3 490.3,77.1 490.3,79.3 C490.3,83.5 487.7,85.9 482.6,86.7 C481.4,86.9 480.1,87 478.6,87 C474.3,87 470.8,86 468.1,83.9 C465.9,82.2 464.1,80.2 462.7,78 L452.6,88.2 C454.7,91.6 457.6,94.3 461.3,96.4 C466.2,99.2 472,100.6 478.7,100.6 C486.4,100.6 492.8,98.7 497.9,95 C503,91.2 505.5,86.1 505.5,79.5 C505.3,74.8 504,70.9 501.5,67.8 Z" id="Shape"></path>
                    <path d="M364.8,61.4 C361.1,60.3 357.4,59.1 353.9,58 C350.3,56.9 347.3,55.7 344.8,54.4 C342.3,53.1 341,51.3 341,49 C341,46.7 342,44.9 343.9,43.6 C344.1,43.5 344.2,43.4 344.4,43.3 C346.2,42.3 348.5,41.8 351,41.8 C354.9,41.8 358,42.8 360.4,44.8 C360.4,44.8 360.5,44.8 360.5,44.9 C362,46.2 363.3,47.6 364.4,49.1 L374.3,39.2 C372.2,36.3 369.5,33.9 366.2,32.1 C361.8,29.6 356.7,28.3 351,28.3 C350.6,28.3 350.3,28.3 349.9,28.3 C349.6,28.3 349.4,28.3 349.1,28.3 C342.8,28.6 337.4,30.5 333,34 C328.2,37.8 325.8,42.9 325.8,49.2 C325.8,53.8 327,57.5 329.6,60.5 C332.1,63.5 335.2,65.5 339,66.7 C342.7,67.8 346.4,69 349.9,70.1 C353.5,71.2 356.5,72.4 359,73.8 C361.5,75.2 362.8,77 362.8,79.2 C362.8,83.4 360.2,85.8 355.1,86.6 C353.9,86.8 352.6,86.9 351.1,86.9 C346.7,86.9 343.2,85.9 340.6,83.8 C338.4,82.1 336.6,80.1 335.2,77.9 L325,88.2 C327.1,91.6 330,94.3 333.7,96.4 C338.6,99.2 344.4,100.6 351.1,100.6 C358.8,100.6 365.2,98.7 370.3,95 C375.4,91.2 377.9,86.1 377.9,79.5 C377.9,74.8 376.7,70.9 374.1,67.8 C371.7,64.6 368.6,62.5 364.8,61.4 Z" id="Shape"></path>
                    <path d="M60.5,52.8 C59.9,52.4 59.2,52 58.6,51.6 C58,51.2 57.2,50.7 56.4,50.3 C56.4,50.3 56.4,50.3 56.3,50.3 C54.6,49.4 53,48.6 51.4,48 C48.5,46.9 44.8,45.6 40.4,43.9 C39.8,43.7 39.2,43.5 38.6,43.4 C38.2,43.2 37.7,43.1 37.2,42.9 C32.1,41.4 28.1,39.9 25.2,38.4 C24.8,38.2 24.4,38 24.1,37.8 C23.4,37.4 22.8,37 22.3,36.7 C19.5,34.7 18.1,31.9 18.1,28.4 C18.1,24.7 19.5,21.8 22.2,19.7 C22.9,19.1 23.7,18.6 24.6,18.2 C27,17 29.8,16.4 33.2,16.4 C37.1,16.4 40.5,17.2 43.5,18.7 C43.5,18.7 43.5,18.7 43.6,18.7 C44.6,19.2 45.5,19.9 46.4,20.6 C46.5,20.7 46.6,20.8 46.8,20.9 C47.7,21.6 48.5,22.5 49.3,23.4 C50.7,24.9 53.3,28.3 53.3,28.4 L64.2,17.5 C61.4,13.1 57.8,9.4 53.4,6.6 C52.6,6.1 51.7,5.6 50.9,5.1 C50.6,4.9 50.3,4.8 49.9,4.6 C44.9,2.1 39.2,0.8 32.9,0.8 C24.4,0.8 17.1,3.3 11.1,8.3 C5.1,13.3 2,20.1 2,28.6 C2,32.9 2.8,36.7 4.3,39.9 C5.9,43.1 8.2,45.8 11.4,47.9 C12.3,48.5 13.2,49.1 14.1,49.6 C14.2,49.7 14.3,49.7 14.4,49.8 C14.8,50 15.2,50.3 15.6,50.5 C15.7,50.6 15.9,50.6 16,50.7 C16.3,50.9 16.6,51 16.9,51.2 C18.3,51.9 19.6,52.5 20.9,53 C23.8,54.1 27.5,55.4 31.9,57.1 C32.8,57.4 33.8,57.7 34.6,57.9 C34.6,57.9 34.7,57.9 34.8,58 C35,58.1 35.3,58.2 35.6,58.2 C41.8,60.2 46.3,62.1 49,63.8 C52.2,65.9 53.8,68.8 53.8,72.8 C53.8,76.5 52.3,79.6 49.3,81.9 C49.2,82 49.1,82 49.1,82.1 C49.1,82.1 49,82.1 49,82.1 C46,84.3 41.7,85.4 35.9,85.4 C33.7,85.4 31.7,85.2 29.8,84.9 C25.7,84.1 22.1,82.6 19.3,80.1 C18.7,79.6 18.1,79.1 17.5,78.5 C17.5,78.5 17.4,78.4 17.4,78.4 C16.7,77.7 16.1,77 15.4,76.2 C13.9,74.3 12.5,72.2 11.4,70 L0,81.1 C2.7,86.5 6.6,90.9 11.8,94.3 C12.7,94.9 13.6,95.4 14.6,95.9 C15,96.1 15.4,96.3 15.8,96.5 C16.3,96.7 16.7,96.9 17.2,97.1 C22.5,99.4 28.5,100.5 35.4,100.5 C45.6,100.5 53.8,98 60.1,92.9 C60.3,92.7 60.5,92.6 60.7,92.4 C60.8,92.3 60.9,92.3 61,92.2 C67,87.2 70.1,80.4 70.1,71.9 C70.1,67.6 69.3,63.8 67.8,60.6 C66,57.6 63.6,54.9 60.5,52.8 Z" id="Shape"></path>
                </g>
                <g id="fw" transform="translate(195.000000, 167.000000)" fill="#FDBD46">
                    <polygon id="Shape" points="0.4 39.7 0.4 0 26.6 0 26.6 8 9.2 8 9.2 16.2 25 16.2 25 24 9.2 24 9.2 39.8 0.4 39.8"></polygon>
                    <path d="M32.6,39.7 L32.6,11 L41.1,11 L41.1,14.9 C42.4,12 45.5,10.3 49.4,10.3 C50,10.3 50.7,10.4 51.6,10.5 L51.6,18.5 C50.7,18.3 49.8,18.2 48.7,18.2 C43.9,18.2 41,20.9 41,25.7 L41,39.7 L32.6,39.7 Z" id="Shape"></path>
                    <path d="M78,14.7 L78,11 L86.5,11 L86.5,39.7 L78,39.7 L78,35.9 C77.1,38.4 73.8,40.2 69.4,40.2 C65.4,40.2 61.9,38.8 59.2,35.9 C56.5,33 55.2,29.5 55.2,25.3 C55.2,21.1 56.6,17.6 59.2,14.8 C61.9,11.9 65.4,10.5 69.4,10.5 C73.7,10.5 77.1,12.2 78,14.7 Z M76.3,30.5 C77.8,29.1 78.5,27.4 78.5,25.4 C78.5,23.4 77.8,21.7 76.3,20.3 C74.9,18.9 73.1,18.2 71,18.2 C68.9,18.2 67.2,18.9 65.8,20.3 C64.4,21.7 63.7,23.4 63.7,25.4 C63.7,27.4 64.4,29.1 65.8,30.5 C67.2,31.9 68.9,32.6 71,32.6 C73.1,32.5 74.8,31.8 76.3,30.5 Z" id="Shape"></path>
                    <path d="M94,39.7 L94,11 L102.5,11 L102.5,14.6 C103.6,12.1 106.5,10.4 110,10.4 C113.9,10.4 116.5,11.9 117.8,15 C119.4,12 122.6,10.4 127.4,10.4 C134,10.4 137.6,14.8 137.6,22.3 L137.6,39.7 L129.1,39.7 L129.1,23.3 C129.1,19.9 127.6,17.9 124.8,17.9 C122,17.9 120,20.2 120,23.6 L120,39.7 L111.5,39.7 L111.5,23.3 C111.5,19.9 110,17.9 107.2,17.9 C104.4,17.9 102.5,20.2 102.5,23.6 L102.5,39.7 L94,39.7 Z" id="Shape"></path>
                    <path d="M143.7,25.3 C143.7,20.8 145.2,17.1 148.1,14.4 C151,11.6 154.8,10.2 159.3,10.2 C163.7,10.2 167.2,11.6 170,14.4 C172.7,17.2 174.1,20.6 174.1,24.8 C174.1,25.8 174,26.7 174,27.5 L152.3,27.5 C152.5,30.9 155.4,33.1 159.9,33.1 C162.6,33.1 164.9,32.2 166.9,30.3 L171.9,35 C168.5,38.5 164.4,40.2 159.5,40.2 C154.8,40.2 151,38.8 148.1,36.2 C145.2,33.5 143.8,29.9 143.8,25.4 L143.8,25.3 L143.7,25.3 Z M165.5,22 C165.5,19.3 162.7,17.2 159.3,17.2 C155.6,17.2 152.6,19.3 152.3,22 L165.5,22 Z" id="Shape"></path>
                    <polygon id="Shape" points="185.4 39.7 176.3 11 184.2 11 189.3 27 194.2 11 200.8 11 205.8 27 210.9 11 218.8 11 209.7 39.7 202.7 39.7 197.6 23.3 192.6 39.7"></polygon>
                    <path d="M247.8,14.6 C250.9,17.5 252.5,21.1 252.5,25.4 C252.5,29.7 251,33.3 247.8,36.2 C244.7,39.1 240.9,40.6 236.5,40.6 C232.1,40.6 228.3,39.1 225.2,36.2 C222.1,33.2 220.6,29.6 220.6,25.4 C220.6,21.1 222.1,17.5 225.2,14.6 C228.3,11.6 232.1,10.2 236.5,10.2 C240.9,10.1 244.6,11.6 247.8,14.6 Z M231.2,30.7 C232.6,32.1 234.4,32.9 236.5,32.9 C238.6,32.9 240.4,32.2 241.8,30.7 C243.2,29.2 244,27.5 244,25.3 C244,23.2 243.3,21.4 241.8,20 C240.4,18.5 238.6,17.8 236.5,17.8 C234.4,17.8 232.6,18.5 231.2,20 C229.8,21.4 229,23.2 229,25.3 C229,27.5 229.8,29.3 231.2,30.7 Z" id="Shape"></path>
                    <path d="M258.8,39.7 L258.8,11 L267.3,11 L267.3,14.9 C268.6,12 271.7,10.3 275.6,10.3 C276.2,10.3 276.9,10.4 277.8,10.5 L277.8,18.5 C276.9,18.3 276,18.2 274.9,18.2 C270.1,18.2 267.2,20.9 267.2,25.7 L267.2,39.7 L258.8,39.7 Z" id="Shape"></path>
                    <polygon id="Shape" points="284.1 39.7 284.1 0 292.6 0 292.6 21.9 302 11 311.9 11 300.4 24 312.8 39.7 303.2 39.7 294.9 29.1 292.5 31.7 292.5 39.7"></polygon>
                </g>
            </g>
        </g>
    </g>
</svg>
