<?xml version="1.0" encoding="utf-8"?>
<!-- Generator: Adobe Illustrator 19.1.0, SVG Export Plug-In . SVG Version: 6.00 Build 0)  -->
<svg version="1.1" id="Vrstva_1" xmlns="http://www.w3.org/2000/svg" xmlns:xlink="http://www.w3.org/1999/xlink" x="0px" y="0px"
	 viewBox="0 0 404.8 512" style="enable-background:new 0 0 404.8 512;" xml:space="preserve">
<style type="text/css">
	.st0{fill:#32464E;}
</style>
<g id="arrow-18">
	<g>
		<path class="st0" d="M217,67.7c-19.2,18.8-19.2,49.4,0,68.2l70.3,68.8H-2.4c-28.3,0-51.2,22.6-51.2,50.5
			c0,27.9,22.9,50.5,51.2,50.5h291.2L217,376.1c-19.2,18.8-19.2,49.4,0,68.2c19.2,18.8,50.4,18.8,69.6,0L444,290.1
			c19.2-18.8,19.2-49.4,0-68.2c-0.1-0.1-0.3-0.3-0.4-0.4l-157-153.8C267.3,48.9,236.2,48.9,217,67.7z"/>
	</g>
</g>
</svg>
