<?xml version="1.0" encoding="utf-8"?>
<!-- Generator: Adobe Illustrator 19.1.0, SVG Export Plug-In . SVG Version: 6.00 Build 0)  -->
<svg version="1.1" id="Vrstva_1" xmlns="http://www.w3.org/2000/svg" xmlns:xlink="http://www.w3.org/1999/xlink" x="0px" y="0px"
	 viewBox="0 0 404.8 512" style="enable-background:new 0 0 404.8 512;" xml:space="preserve">
<style type="text/css">
	.st0{fill:#32464E;}
</style>
<g id="arrow-18">
	<g>
		<path class="st0" d="M187.8,444.3c19.2-18.8,19.2-49.4,0-68.2l-70.3-68.8h289.6c28.3,0,51.2-22.6,51.2-50.5
			c0-27.9-22.9-50.5-51.2-50.5H116l71.8-70.3c19.2-18.8,19.2-49.4,0-68.2c-19.2-18.8-50.4-18.8-69.6,0L-39.2,221.9
			c-19.2,18.8-19.2,49.4,0,68.2c0.1,0.1,0.3,0.3,0.4,0.4l157,153.8C137.5,463.1,168.6,463.1,187.8,444.3z"/>
	</g>
</g>
</svg>
