<?xml version="1.0" encoding="utf-8"?>
<!-- Generator: Adobe Illustrator 19.1.0, SVG Export Plug-In . SVG Version: 6.00 Build 0)  -->
<svg version="1.1" id="Vrstva_1" xmlns="http://www.w3.org/2000/svg" xmlns:xlink="http://www.w3.org/1999/xlink" x="0px" y="0px"
	 viewBox="0 0 404.8 512" style="enable-background:new 0 0 404.8 512;" xml:space="preserve">
<style type="text/css">
	.st0{fill:#32464E;}
</style>
<g id="arrow-18">
	<g>
		<path class="st0" d="M14.1,241.4c18.8,19.2,49.4,19.2,68.2,0l68.8-70.3v289.6c0,28.3,22.6,51.2,50.5,51.2
			c27.9,0,50.5-22.9,50.5-51.2V169.6l70.3,71.8c18.8,19.2,49.4,19.2,68.2,0c18.8-19.2,18.8-50.4,0-69.6L236.5,14.4
			c-18.8-19.2-49.4-19.2-68.2,0c-0.1,0.1-0.3,0.3-0.4,0.4l-153.8,157C-4.7,191.1-4.7,222.2,14.1,241.4z"/>
	</g>
</g>
</svg>
