<?xml version="1.0" encoding="utf-8"?>
<!-- Generator: Adobe Illustrator 19.1.0, SVG Export Plug-In . SVG Version: 6.00 Build 0)  -->
<svg version="1.1" id="Vrstva_1" xmlns="http://www.w3.org/2000/svg" xmlns:xlink="http://www.w3.org/1999/xlink" x="0px" y="0px"
	 viewBox="-1438.9 -0.1 512 512" style="enable-background:new -1438.9 -0.1 512 512;" xml:space="preserve">
<style type="text/css">
	.st0{fill:none;}
	.st1{fill:#444444;}
</style>
<g>
	<g transform="translate(1.000000, 0.000000)">
		<path class="st0" d="M-993.5,127.9h-382.9c-31.7,0-31.7,0-31.7,36v285.6c0,33.9,0,31.7,31.7,31.7h382.9c31.7,0,31.7,2.1,31.7-31.7
			V163.9C-961.8,130.1-961.8,127.9-993.5,127.9L-993.5,127.9z M-1027.3,386.1h-61.4v63.5h-29.6v-63.5h-133.3v63.5h-27.5v-63.5h-65.6
			v-29.6h65.6v-65.6h-63.5v-29.6h63.5v-63.5h29.6v63.5h131.2v-63.5h29.6v63.5h61.4v29.6h-61.4v65.6h61.4V386.1L-1027.3,386.1z"/>
		<path class="st1" d="M-1088.7,290.9h61.4v-29.6h-61.4v-63.5h-29.6v63.5h-133.3v-63.5h-27.5v63.5h-63.5v29.6h63.5v65.6h-65.6v29.6
			h65.6v63.5h29.6v-63.5h131.2v63.5h29.6v-63.5h61.4v-29.6h-61.4V290.9L-1088.7,290.9z M-1120.4,356.4h-129.1v-65.6h129.1V356.4
			L-1120.4,356.4z"/>
		<path class="st1" d="M-1001.9,37h-57.1v29.6h-31.7V37h-190.4v29.6h-31.7V37h-55c-40.2,0-71.9,31.7-71.9,71.9v327.9
			c0,40.2,31.7,71.9,71.9,71.9h368.1c40.2,0,71.9-31.7,71.9-71.9V108.9C-930,68.7-961.8,37-1001.9,37L-1001.9,37z M-961.8,449.5
			c0,33.9,0,31.7-31.7,31.7h-382.9c-31.7,0-31.7,2.1-31.7-31.7V163.9h446.4V449.5L-961.8,449.5z"/>
		<rect x="-1313" y="3.1" class="st1" width="31.7" height="31.7"/>
		<rect x="-1088.7" y="3.1" class="st1" width="31.7" height="31.7"/>
	</g>
</g>
</svg>
