<?xml version="1.0" encoding="utf-8"?>
<!-- Generator: Adobe Illustrator 19.1.0, SVG Export Plug-In . SVG Version: 6.00 Build 0)  -->
<svg version="1.1" id="Vrstva_1" xmlns="http://www.w3.org/2000/svg" xmlns:xlink="http://www.w3.org/1999/xlink" x="0px" y="0px"
	 viewBox="-711 25 512 512" style="enable-background:new -711 25 512 512;" xml:space="preserve">
<style type="text/css">
	.st0{fill:#444444;}
</style>
<g>
	<path class="st0" d="M-224.6,181.5h-66.1L-327,55.6c-4.3-10.7-17.1-14.9-27.7-10.7l-2.1,2.1c-10.7,6.4-14.9,19.2-10.7,29.9
		l25.6,104.5h-228.3L-544.6,77c4.3-10.7,0-23.5-10.7-29.9v0c-10.7-6.4-23.5-2.1-29.9,8.5l-36.3,125.9h-64
		c-14.9,0-25.6,8.5-25.6,21.3c0,0,10.7,42.7,25.6,42.7h21.3l14.9,228.3c0,0,2.1,44.8,72.5,44.8h241.1c74.7,0,72.5-46.9,72.5-46.9
		l12.8-228.3h25.6c12.8,0,25.6-42.7,25.6-42.7C-199,190-209.7,181.5-224.6,181.5L-224.6,181.5z M-608.6,247.6h-36.3v-36.3h36.3
		V247.6L-608.6,247.6z M-538.2,443.9c0,12.8-8.5,21.3-19.2,21.3l0,0c-10.7,0-19.2-10.7-19.2-21.3V294.6c0-12.8,8.5-21.3,19.2-21.3
		l0,0c10.7,0,19.2,10.7,19.2,21.3V443.9L-538.2,443.9z M-435.8,437.5c0,10.7-8.5,21.3-19.2,21.3l0,0c-10.7,0-19.2-8.5-19.2-21.3
		V296.7c0-10.7,8.5-21.3,19.2-21.3l0,0c10.7,0,19.2,8.5,19.2,21.3V437.5L-435.8,437.5z M-333.4,439.6c0,10.7-8.5,21.3-19.2,21.3l0,0
		c-10.7,0-19.2-8.5-19.2-21.3V296.7c0-10.7,8.5-21.3,19.2-21.3l0,0c10.7,0,19.2,8.5,19.2,21.3V439.6L-333.4,439.6z M-265.1,247.6
		h-38.4v-36.3h38.4V247.6L-265.1,247.6z"/>
</g>
</svg>
