<?xml version="1.0" encoding="UTF-8" standalone="no"?>
<svg
   xmlns:dc="http://purl.org/dc/elements/1.1/"
   xmlns:cc="http://creativecommons.org/ns#"
   xmlns:rdf="http://www.w3.org/1999/02/22-rdf-syntax-ns#"
   xmlns:svg="http://www.w3.org/2000/svg"
   xmlns="http://www.w3.org/2000/svg"
   xmlns:sodipodi="http://sodipodi.sourceforge.net/DTD/sodipodi-0.dtd"
   xmlns:inkscape="http://www.inkscape.org/namespaces/inkscape"
   width="512"
   height="512"
   viewBox="0 0 512 512"
   version="1.1"
   id="svg8"
   sodipodi:docname="cart.svg"
   inkscape:version="0.92.4 (33fec40, 2019-01-16)">
  <metadata
     id="metadata14">
    <rdf:RDF>
      <cc:Work
         rdf:about="">
        <dc:format>image/svg+xml</dc:format>
        <dc:type
           rdf:resource="http://purl.org/dc/dcmitype/StillImage" />
        <dc:title></dc:title>
      </cc:Work>
    </rdf:RDF>
  </metadata>
  <defs
     id="defs12" />
  <sodipodi:namedview
     pagecolor="#ffffff"
     bordercolor="#666666"
     borderopacity="1"
     objecttolerance="10"
     gridtolerance="10"
     guidetolerance="10"
     inkscape:pageopacity="0"
     inkscape:pageshadow="2"
     inkscape:window-width="1920"
     inkscape:window-height="987"
     id="namedview10"
     showgrid="false"
     inkscape:zoom="0.26339286"
     inkscape:cx="1004.6166"
     inkscape:cy="531.4001"
     inkscape:window-x="0"
     inkscape:window-y="0"
     inkscape:window-maximized="1"
     inkscape:current-layer="svg8" />
  <g
     id="g6"
     style="fill:#000000"
     transform="matrix(32,0,0,32,0,35.138622)">
    <g
       id="g4"
       style="fill:#000000">
      <path
         d="m 6.545,9.435 c 0,-0.797 0.653,-1.45 1.45,-1.45 0.797,0 1.45,0.653 1.45,1.45 0,0.797 -0.653,1.45 -1.45,1.45 -0.797,0 -1.45,-0.653 -1.45,-1.45 z M 8,1.876 l 2.182,3.2 H 5.818 Z M 8.604,0.306 A 0.722,0.722 0 0 0 8,0 0.71,0.71 0 0 0 7.396,0.313 L 4.211,5.076 H 0.727 A 0.73,0.73 0 0 0 0,5.804 C 0,5.869 0.007,5.934 0.03,6 l 1.846,6.742 c 0.168,0.61 0.728,1.062 1.397,1.062 h 9.454 c 0.67,0 1.23,-0.451 1.404,-1.062 L 15.978,6 16,5.804 A 0.73,0.73 0 0 0 15.273,5.076 h -3.484 z"
         id="path2"
         style="fill:#000000;fill-opacity:0.65"
         inkscape:connector-curvature="0" />
    </g>
  </g>
</svg>
