<?xml version="1.0" encoding="utf-8"?>
<!-- Generator: Adobe Illustrator 19.1.0, SVG Export Plug-In . SVG Version: 6.00 Build 0)  -->
<svg version="1.1" id="Vrstva_1" xmlns="http://www.w3.org/2000/svg" xmlns:xlink="http://www.w3.org/1999/xlink" x="0px" y="0px"
	 viewBox="-711 25 512 512" style="enable-background:new -711 25 512 512;" xml:space="preserve">
<style type="text/css">
	.st0{fill:#444444;}
</style>
<g>
	<path class="st0" d="M-455,25c-140.8,0-256,115.2-256,256s115.2,256,256,256s256-115.2,256-256S-314.2,25-455,25L-455,25z
		 M-380.3,313h-40.5v40.5c0,32,2.1,57.6-34.1,57.6s-34.1-25.6-34.1-57.6V313h-40.5c-32,0-57.6,2.1-57.6-34.1
		c0-36.3,25.6-34.1,57.6-34.1h40.5v-40.5c0-32-2.1-57.6,34.1-57.6s34.1,25.6,34.1,57.6v40.5h40.5c32,0,57.6-2.1,57.6,34.1
		C-324.9,315.1-348.3,313-380.3,313L-380.3,313z"/>
</g>
</svg>
