<?xml version="1.0" encoding="utf-8"?>
<!-- Generator: Adobe Illustrator 19.1.0, SVG Export Plug-In . SVG Version: 6.00 Build 0)  -->
<svg version="1.1" id="Vrstva_1" xmlns="http://www.w3.org/2000/svg" xmlns:xlink="http://www.w3.org/1999/xlink" x="0px" y="0px"
	 viewBox="-711 25 512 512" style="enable-background:new -711 25 512 512;" xml:space="preserve">
<style type="text/css">
	.st0{fill:#32464E;}
</style>
<g id="button-delete">
	<g>
		<path class="st0" d="M-275.6,99.5c-99.4-99.4-261.4-99.4-360.8,0s-99.4,261.4,0,362.9c99.4,99.4,261.4,99.4,362.9,0
			C-174,360.9-174,198.9-275.6,99.5z M-342.5,360.9c15.1,15.1,28.1,25.9,10.8,43.2c-17.3,17.3-28.1,4.3-43.2-10.8l-79.9-77.8
			l-79.9,79.9c-15.1,15.1-25.9,28.1-43.2,10.8s-4.3-28.1,10.8-43.2l79.9-79.9l-79.9-82.1c-15.1-15.1-28.1-25.9-10.8-43.2
			s28.1-4.3,43.2,10.8l79.9,79.9l79.9-79.9c15.1-15.1,25.9-28.1,43.2-10.8c17.3,17.3,4.3,28.1-10.8,43.2l-79.9,79.9L-342.5,360.9z"
			/>
	</g>
</g>
</svg>
