<?xml version="1.0" encoding="UTF-8" standalone="no"?>
<svg
   xmlns:dc="http://purl.org/dc/elements/1.1/"
   xmlns:cc="http://creativecommons.org/ns#"
   xmlns:rdf="http://www.w3.org/1999/02/22-rdf-syntax-ns#"
   xmlns:svg="http://www.w3.org/2000/svg"
   xmlns="http://www.w3.org/2000/svg"
   xmlns:sodipodi="http://sodipodi.sourceforge.net/DTD/sodipodi-0.dtd"
   xmlns:inkscape="http://www.inkscape.org/namespaces/inkscape"
   width="512"
   height="512"
   viewBox="0 0 512 512"
   version="1.1"
   id="svg8"
   sodipodi:docname="document-copy.svg"
   inkscape:version="0.92.4 (33fec40, 2019-01-16)">
  <metadata
     id="metadata14">
    <rdf:RDF>
      <cc:Work
         rdf:about="">
        <dc:format>image/svg+xml</dc:format>
        <dc:type
           rdf:resource="http://purl.org/dc/dcmitype/StillImage" />
        <dc:title></dc:title>
      </cc:Work>
    </rdf:RDF>
  </metadata>
  <defs
     id="defs12" />
  <sodipodi:namedview
     pagecolor="#ffffff"
     bordercolor="#666666"
     borderopacity="1"
     objecttolerance="10"
     gridtolerance="10"
     guidetolerance="10"
     inkscape:pageopacity="0"
     inkscape:pageshadow="2"
     inkscape:window-width="1920"
     inkscape:window-height="987"
     id="namedview10"
     showgrid="false"
     inkscape:zoom="0.16296602"
     inkscape:cx="-426.49585"
     inkscape:cy="1232.7035"
     inkscape:window-x="0"
     inkscape:window-y="0"
     inkscape:window-maximized="1"
     inkscape:current-layer="svg8" />
  <g
     id="g6"
     style="fill:#000000"
     transform="matrix(32,0,0,32,25.6,0)">
    <g
       id="g4"
       style="fill:#000000">
      <path
         d="M 3.2,6.4 V 4.8 h 8 v 1.6 z m 0,3.2 V 8 h 8 v 1.6 z m 0,3.2 v -1.6 h 5.6 v 1.6 z M 8,2.4 C 8,2.84 7.64,3.2 7.2,3.2 6.76,3.2 6.4,2.84 6.4,2.4 6.4,1.96 6.76,1.6 7.2,1.6 7.64,1.6 8,1.96 8,2.4 Z M 9.456,1.6 A 2.408,2.408 0 0 0 7.2,0 C 6.16,0 5.28,0.672 4.944,1.6 H 1.6 C 0.72,1.6 0,2.32 0,3.2 V 14.4 C 0,15.28 0.72,16 1.6,16 h 11.2 c 0.88,0 1.6,-0.72 1.6,-1.6 V 3.2 c 0,-0.88 -0.72,-1.6 -1.6,-1.6 z"
         id="path2"
         style="fill:#000000;fill-opacity:0.65"
         inkscape:connector-curvature="0" />
    </g>
  </g>
</svg>
