<?xml version="1.0" encoding="utf-8"?>
<!-- Generator: Adobe Illustrator 19.1.0, SVG Export Plug-In . SVG Version: 6.00 Build 0)  -->
<svg version="1.1" id="Vrstva_1" xmlns="http://www.w3.org/2000/svg" xmlns:xlink="http://www.w3.org/1999/xlink" x="0px" y="0px"
	 viewBox="0 0 512 512" style="enable-background:new 0 0 512 512;" xml:space="preserve">
<style type="text/css">
	.st0{fill:#32454E;}
</style>
<g id="button-down-2">
	<g>
		<path class="st0" d="M256,0C114.8,0,0,114.9,0,256s114.8,256,256,256c141.2,0,256-114.8,256-256S397.2,0,256,0z M256,469.3
			c-117.5,0-213-95.7-213-213.3c0-117.7,95.6-213.3,213-213.3c117.5,0,213,95.7,213,213.3C469,373.6,373.5,469.3,256,469.3z
			 M295.2,165.1c0-14.8-14-34.1-41-34.1c-27,0-41.9,20.9-41.9,35.7v91.8l-63.7,0l105.9,125.6l104.7-125.6h-64V165.1z"/>
	</g>
</g>
</svg>
