<?xml version="1.0" encoding="UTF-8" standalone="no"?>
<!-- Generator: Adobe Illustrator 19.1.0, SVG Export Plug-In . SVG Version: 6.00 Build 0)  -->

<svg
   xmlns:osb="http://www.openswatchbook.org/uri/2009/osb"
   xmlns:dc="http://purl.org/dc/elements/1.1/"
   xmlns:cc="http://creativecommons.org/ns#"
   xmlns:rdf="http://www.w3.org/1999/02/22-rdf-syntax-ns#"
   xmlns:svg="http://www.w3.org/2000/svg"
   xmlns="http://www.w3.org/2000/svg"
   xmlns:xlink="http://www.w3.org/1999/xlink"
   xmlns:sodipodi="http://sodipodi.sourceforge.net/DTD/sodipodi-0.dtd"
   xmlns:inkscape="http://www.inkscape.org/namespaces/inkscape"
   version="1.1"
   id="Vrstva_1"
   x="0px"
   y="0px"
   viewBox="-711 25 512 512"
   style="enable-background:new -711 25 512 512;"
   xml:space="preserve"
   inkscape:version="0.91 r13725"
   sodipodi:docname="file-word.svg"><metadata
     id="metadata15"><rdf:RDF><cc:Work
         rdf:about=""><dc:format>image/svg+xml</dc:format><dc:type
           rdf:resource="http://purl.org/dc/dcmitype/StillImage" /></cc:Work></rdf:RDF></metadata><defs
     id="defs13"><linearGradient
       id="linearGradient5583"
       osb:paint="solid"><stop
         style="stop-color:#000000;stop-opacity:1;"
         offset="0"
         id="stop5585" /></linearGradient><linearGradient
       id="linearGradient4143"
       osb:paint="solid"><stop
         style="stop-color:#000000;stop-opacity:1;"
         offset="0"
         id="stop4145" /></linearGradient><linearGradient
       inkscape:collect="always"
       xlink:href="#linearGradient5583"
       id="linearGradient5587"
       x1="128"
       y1="896"
       x2="1664"
       y2="896"
       gradientUnits="userSpaceOnUse" /><linearGradient
       inkscape:collect="always"
       xlink:href="#linearGradient5583"
       id="linearGradient5589"
       gradientUnits="userSpaceOnUse"
       x1="128"
       y1="896"
       x2="1664"
       y2="896" /><linearGradient
       inkscape:collect="always"
       xlink:href="#linearGradient5583"
       id="linearGradient5591"
       gradientUnits="userSpaceOnUse"
       x1="128"
       y1="896"
       x2="1664"
       y2="896" /></defs><sodipodi:namedview
     pagecolor="#ffffff"
     bordercolor="#666666"
     borderopacity="1"
     objecttolerance="10"
     gridtolerance="10"
     guidetolerance="10"
     inkscape:pageopacity="0"
     inkscape:pageshadow="2"
     inkscape:window-width="1366"
     inkscape:window-height="715"
     id="namedview11"
     showgrid="false"
     inkscape:zoom="0.45254834"
     inkscape:cx="285.5075"
     inkscape:cy="179.44477"
     inkscape:window-x="-8"
     inkscape:window-y="22"
     inkscape:window-maximized="1"
     inkscape:current-layer="Vrstva_1" /><style
     type="text/css"
     id="style3">
	.st0{fill:#444444;}
</style><g
     id="g5"
     style="fill:url(#linearGradient5587);fill-opacity:1"
     transform="matrix(0.28180804,0,0,0.28180804,-706.96658,30.749997)"><svg
       width="512"
       height="512"
       viewBox="0 0 512 512"
       id="svg7"
       version="1.1"
       style="fill:url(#linearGradient5591);fill-opacity:1"
       inkscape:version="0.91 r13725"><path
         d="m 1596,380 q 28,28 48,76 20,48 20,88 l 0,1152 q 0,40 -28,68 -28,28 -68,28 l -1344,0 q -40,0 -68,-28 -28,-28 -28,-68 L 128,96 Q 128,56 156,28 184,0 224,0 l 896,0 q 40,0 88,20 48,20 76,48 z m -444,-244 0,376 376,0 q -10,-29 -22,-41 L 1193,158 q -12,-12 -41,-22 z m 384,1528 0,-1024 -416,0 q -40,0 -68,-28 -28,-28 -28,-68 l 0,-416 -768,0 0,1536 1280,0 z M 361,768 l 0,107 70,0 164,661 159,0 128,-485 q 7,-20 10,-46 2,-16 2,-24 l 4,0 3,24 q 1,3 3.5,20 2.5,17 5.5,26 l 128,485 159,0 164,-661 70,0 0,-107 -300,0 0,107 90,0 -99,438 q -5,20 -7,46 l -2,21 -4,0 -3,-21 q -1,-5 -4,-21 -3,-16 -5,-25 L 953,768 839,768 695,1313 q -2,9 -4.5,24.5 -2.5,15.5 -3.5,21.5 l -4,21 -4,0 -2,-21 q -2,-26 -7,-46 l -99,-438 90,0 0,-107 -300,0 z"
         id="path9"
         style="fill:url(#linearGradient5589);fill-opacity:1"
         inkscape:connector-curvature="0" /></svg></g></svg>