<?xml version="1.0" encoding="UTF-8"?>
<svg width="510px" height="512px" viewBox="0 0 510 512" version="1.1" xmlns="http://www.w3.org/2000/svg" xmlns:xlink="http://www.w3.org/1999/xlink">
    <!-- Generator: Sketch 55.2 (78181) - https://sketchapp.com -->
    <title>Icon_Settings</title>
    <desc>Created with Sketch.</desc>
    <g id="Page-1" stroke="none" stroke-width="1" fill="none" fill-rule="evenodd">
        <g id="Artboard" fill="#000000">
            <path d="M449.634992,281.088 C450.683133,272.896 451.469239,264.704 451.469239,256 C451.469239,247.296 450.683133,239.104 449.634992,230.912 L504.924432,188.672 C509.903102,184.832 511.213279,177.92 508.068855,172.288 L455.661803,83.712 C452.51738,78.08 445.442428,76.032 439.677653,78.08 L374.430873,103.68 C360.805039,93.44 346.131065,84.992 330.146914,78.592 L320.189574,10.752 C319.403468,4.608 313.900728,0 307.349846,0 L202.535742,0 C195.98486,0 190.48212,4.608 189.696014,10.752 L179.738674,78.592 C163.754523,84.992 149.080549,93.696 135.454715,103.68 L70.2079354,78.08 C64.1811245,75.776 57.3682077,78.08 54.2237846,83.712 L1.81673249,172.288 C-1.5897259,177.92 -0.0175143338,184.832 4.96115561,188.672 L60.2505955,230.912 C59.2024545,239.104 58.4163487,247.552 58.4163487,256 C58.4163487,264.448 59.2024545,272.896 60.2505955,281.088 L4.96115561,323.328 C-0.0175143338,327.168 -1.32769064,334.08 1.81673249,339.712 L54.2237846,428.288 C57.3682077,433.92 64.4431597,435.968 70.2079354,433.92 L135.454715,408.32 C149.080549,418.56 163.754523,427.008 179.738674,433.408 L189.696014,501.248 C190.48212,507.392 195.98486,512 202.535742,512 L307.349846,512 C313.900728,512 319.403468,507.392 320.189574,501.248 L330.146914,433.408 C346.131065,427.008 360.805039,418.304 374.430873,408.32 L439.677653,433.92 C445.704464,436.224 452.51738,433.92 455.661803,428.288 L508.068855,339.712 C511.213279,334.08 509.903102,327.168 504.924432,323.328 L449.634992,281.088 L449.634992,281.088 Z M254.942794,345.6 C204.369989,345.6 163.230453,305.408 163.230453,256 C163.230453,206.592 204.369989,166.4 254.942794,166.4 C305.515599,166.4 346.655135,206.592 346.655135,256 C346.655135,305.408 305.515599,345.6 254.942794,345.6 L254.942794,345.6 Z" id="Icon_Settings"></path>
        </g>
    </g>
</svg>