<?xml version="1.0" encoding="utf-8"?>
<!-- Generator: Adobe Illustrator 19.1.0, SVG Export Plug-In . SVG Version: 6.00 Build 0)  -->
<svg version="1.1" id="Vrstva_1" xmlns="http://www.w3.org/2000/svg" xmlns:xlink="http://www.w3.org/1999/xlink" x="0px" y="0px"
	 viewBox="-711 25 512 512" style="enable-background:new -711 25 512 512;" xml:space="preserve">
<style type="text/css">
	.st0{fill:#444444;}
</style>
<g>
	<path class="st0" d="M-199,310.9V249h-66.1c-4.3-29.9-17.1-55.5-32-78.9l46.9-46.9L-295,78.3l-46.9,46.9
		c-23.5-17.1-49.1-27.7-78.9-32V25h-64v66.1c-32,4.3-57.6,17.1-81.1,34.1l-46.9-49.1l-44.8,44.8l46.9,46.9
		c-17.1,23.5-27.7,51.2-34.1,81.1H-711v61.9h66.1c4.3,29.9,17.1,57.6,32,81.1l-46.9,46.9l44.8,44.8l46.9-46.9
		c23.5,17.1,49.1,27.7,78.9,32V537h64v-66.1c29.9-4.3,57.6-17.1,81.1-34.1l46.9,46.9l44.8-44.8l-46.9-46.9
		c17.1-23.5,27.7-51.2,32-81.1L-199,310.9L-199,310.9z M-455,379.1c-55.5,0-98.1-44.8-98.1-98.1s44.8-100.3,98.1-100.3
		s98.1,44.8,98.1,98.1S-399.5,379.1-455,379.1L-455,379.1z"/>
</g>
</svg>
