<?xml version="1.0" encoding="utf-8"?>
<!-- Generator: Adobe Illustrator 19.1.0, SVG Export Plug-In . SVG Version: 6.00 Build 0)  -->
<svg version="1.1" id="Vrstva_1" xmlns="http://www.w3.org/2000/svg" xmlns:xlink="http://www.w3.org/1999/xlink" x="0px" y="0px"
	 viewBox="-711 25 512 512" style="enable-background:new -711 25 512 512;" xml:space="preserve">
<style type="text/css">
	.st0{fill:#444444;}
</style>
<g>
	<g transform="translate(1.000000, 1.000000)">
		<path class="st0" d="M-206.7,289.5l-121.5-125.8V72.1h-32v55.4l-81-81c-8.5-8.5-23.5-8.5-32,0l-232.4,243.1
			c-8.5,8.5-8.5,23.5,0,32c8.5,8.5,23.5,8.5,32,0l217.5-217.5l217.5,217.5c4.3,4.3,10.7,6.4,17.1,6.4c6.4,0,10.7-2.1,17.1-6.4
			C-198.2,313-198.2,298.1-206.7,289.5L-206.7,289.5z"/>
		<path class="st0" d="M-613.9,313v181.2c0,12.8,6.4,25.6,19.2,25.6h72.5l2.1-127.9h127.9v127.9h74.6c10.7,0,19.2-12.8,19.2-25.6
			V313l-157.8-155.6L-613.9,313L-613.9,313z"/>
	</g>
</g>
</svg>
