<?xml version="1.0" encoding="utf-8"?>
<!-- Generator: Adobe Illustrator 19.1.0, SVG Export Plug-In . SVG Version: 6.00 Build 0)  -->
<svg version="1.1" id="Layer_1" xmlns="http://www.w3.org/2000/svg" xmlns:xlink="http://www.w3.org/1999/xlink" x="0px" y="0px"
	 viewBox="-711 24.7 512 512" style="enable-background:new -711 24.7 512 512;" xml:space="preserve">
<g>
	<path d="M-533.4,286.2c0,1.6,0.4,3.2,0.5,4.8l84.9-83.5c-2.3-0.2-4.6-0.5-7-0.5C-498.2,207-533.4,242.6-533.4,286.2z"/>
	<path d="M-203.7,267.5c-18.7-34.7-46.3-64.5-80-88l-63.9,62.8c5.5,13.6,8.5,28.4,8.5,43.9c0,64.5-52,117.1-115.9,117.1
		c-16.5,0-32.2-3.6-46.4-9.9l-40.8,40.1c28,8.2,57.3,12.6,87.2,12.6c53,0,104.6-13.4,149.1-38.6c44.1-25,79.5-60.5,102.1-102.6
		C-197.4,293.3-197.4,279.2-203.7,267.5z"/>
	<path d="M-570.8,286.2c0-64.5,52-117,115.9-117c13.7,0,26.8,2.5,39,7l40.2-39.5c-25.5-6.7-52.2-10.3-79.2-10.3
		c-53,0-104.6,13.4-149.2,38.6c-44.1,25-79.4,60.5-102.1,102.6c-6.3,11.6-6.3,25.7,0,37.4c17.6,32.6,42.9,61,73.8,83.9l67.4-66.2
		C-568.8,311.1-570.8,298.9-570.8,286.2z"/>
	<path d="M-376.6,286.2c0-4.8-0.5-9.5-1.3-14.1l-93.2,91.5c5.2,1.1,10.6,1.7,16.2,1.7C-411.8,365.4-376.6,329.9-376.6,286.2z"/>
	<polygon points="-249.1,101 -271.7,78.8 -660.1,460.4 -637.5,482.7 -637.5,482.7 	"/>
</g>
</svg>
