<?xml version="1.0" encoding="utf-8"?>
<!-- Generator: Adobe Illustrator 19.1.0, SVG Export Plug-In . SVG Version: 6.00 Build 0)  -->
<svg version="1.1" id="Vrstva_1" xmlns="http://www.w3.org/2000/svg" xmlns:xlink="http://www.w3.org/1999/xlink" x="0px" y="0px"
	 viewBox="0 0 512 512" style="enable-background:new 0 0 512 512;" xml:space="preserve">
<style type="text/css">
	.st0{fill-rule:evenodd;clip-rule:evenodd;fill:#32454E;}
</style>
<g id="email">
	<g>
		<path class="st0" d="M491.1,95.7H20.9c-11.5,0-20.9,9.4-20.9,21v278.6c0,11.6,9.3,21,20.9,21h470.2c11.5,0,20.9-9.4,20.9-21V116.7
			C512,105.1,502.6,95.7,491.1,95.7z M491.9,138.1L386.2,245.6l105.7,150.5l-20.5,0.5L364.8,267.1l-108.4,86.5l-106.2-86l-107.5,129
			h-21l106.7-151L20.7,138.1l0.5-22l235.1,194l235.6-192.9V138.1z"/>
	</g>
</g>
</svg>
