<?xml version="1.0" encoding="utf-8"?>
<!-- Generator: Adobe Illustrator 19.1.0, SVG Export Plug-In . SVG Version: 6.00 Build 0)  -->
<svg version="1.1" id="Vrstva_1" xmlns="http://www.w3.org/2000/svg" xmlns:xlink="http://www.w3.org/1999/xlink" x="0px" y="0px"
	 viewBox="-711.3 25 512 512" style="enable-background:new -711.3 25 512 512;" xml:space="preserve">
<style type="text/css">
	.st0{fill:#444444;}
</style>
<g>
	<g transform="translate(3.000000, 0.000000)">
		<path class="st0" d="M-298.3,153c0-83.2-72.5-128-160-128s-160,44.8-160,128c0,106.7,66.1,134.4,106.7,200.5
			c8.5,14.9-14.9,6.4-8.5,21.3h121.6c8.5-14.9-19.2-6.4-10.7-21.3C-368.7,287.4-298.3,261.8-298.3,153L-298.3,153z"/>
		<rect x="-522.3" y="409" class="st0" width="125.9" height="29.9"/>
		<path class="st0" d="M-396.4,505c0,17.1-14.9,32-32,32h-64c-17.1,0-32-14.9-32-32v-32h125.9v32H-396.4z"/>
	</g>
</g>
</svg>
