<?xml version="1.0" encoding="utf-8"?>
<!-- Generator: Adobe Illustrator 19.1.0, SVG Export Plug-In . SVG Version: 6.00 Build 0)  -->
<svg version="1.1" id="Vrstva_1" xmlns="http://www.w3.org/2000/svg" xmlns:xlink="http://www.w3.org/1999/xlink" x="0px" y="0px"
	 viewBox="-718.1 25.1 512 512" style="enable-background:new -718.1 25.1 512 512;" xml:space="preserve">
<style type="text/css">
	.st0{fill:#434343;}
</style>
<title>992</title>
<g>
	<path class="st0" d="M-218.8,102.8l-64.6-64.1c-17.4-17.3-44.5-18.2-60.7-2.1l-293.7,294.2c0,0-74.5,171.4-79.5,185.2
		c-4,11,9.9,24.8,19.5,20.1C-682.4,528.5-513,455-513,455l294.5-295.4C-202.4,143.4-201.4,120.1-218.8,102.8L-218.8,102.8z
		 M-675.1,469l55.4-116.8l-0.6,22.7l32.1-0.5l306.8-304.1l40.6,39.8l-295.8,288.8l-7.3,24.2l15.7,15.7L-651,492.1L-675.1,469
		L-675.1,469z"/>
</g>
</svg>
