<?xml version="1.0" encoding="UTF-8" standalone="no"?>
<svg
   xmlns:dc="http://purl.org/dc/elements/1.1/"
   xmlns:cc="http://creativecommons.org/ns#"
   xmlns:rdf="http://www.w3.org/1999/02/22-rdf-syntax-ns#"
   xmlns:svg="http://www.w3.org/2000/svg"
   xmlns="http://www.w3.org/2000/svg"
   xmlns:sodipodi="http://sodipodi.sourceforge.net/DTD/sodipodi-0.dtd"
   xmlns:inkscape="http://www.inkscape.org/namespaces/inkscape"
   width="512"
   height="512"
   viewBox="0 0 512 512"
   version="1.1"
   id="svg8"
   sodipodi:docname="person-door-man.svg"
   inkscape:version="0.92.4 (33fec40, 2019-01-16)">
  <metadata
     id="metadata14">
    <rdf:RDF>
      <cc:Work
         rdf:about="">
        <dc:format>image/svg+xml</dc:format>
        <dc:type
           rdf:resource="http://purl.org/dc/dcmitype/StillImage" />
        <dc:title></dc:title>
      </cc:Work>
    </rdf:RDF>
  </metadata>
  <defs
     id="defs12" />
  <sodipodi:namedview
     pagecolor="#ffffff"
     bordercolor="#666666"
     borderopacity="1"
     objecttolerance="10"
     gridtolerance="10"
     guidetolerance="10"
     inkscape:pageopacity="0"
     inkscape:pageshadow="2"
     inkscape:window-width="1920"
     inkscape:window-height="987"
     id="namedview10"
     showgrid="false"
     inkscape:zoom="14.75"
     inkscape:cx="7"
     inkscape:cy="8"
     inkscape:window-x="0"
     inkscape:window-y="0"
     inkscape:window-maximized="1"
     inkscape:current-layer="svg8" />
  <g
     id="g6"
     transform="matrix(32,0,0,32,36.576,0)"
     style="fill:#000000">
    <g
       id="g4"
       style="fill:#000000">
      <path
         d="M 2.286,10.667 V 9.98 c 0,-1.524 3.047,-2.362 4.571,-2.362 1.524,0 4.572,0.838 4.572,2.362 v 0.686 z M 8.914,4.577 A 2.06,2.06 0 0 1 6.857,6.639 2.06,2.06 0 0 1 4.8,4.576 2.06,2.06 0 0 1 6.857,2.514 2.06,2.06 0 0 1 8.914,4.576 Z M 1.524,0 C 0.678,0 0,0.686 0,1.524 V 12.19 c 0,0.839 0.678,1.524 1.524,1.524 H 4.57 L 6.857,16 9.143,13.714 h 3.047 c 0.839,0 1.524,-0.685 1.524,-1.524 V 1.524 C 13.714,0.686 13.03,0 12.19,0 Z"
         id="path2"
         inkscape:connector-curvature="0"
         style="fill:#000000;fill-opacity:0.65" />
    </g>
  </g>
</svg>
