<?xml version="1.0" encoding="utf-8"?>
<!-- Generator: Adobe Illustrator 19.1.0, SVG Export Plug-In . SVG Version: 6.00 Build 0)  -->
<svg version="1.1" id="Vrstva_1" xmlns="http://www.w3.org/2000/svg" xmlns:xlink="http://www.w3.org/1999/xlink" x="0px" y="0px"
	 viewBox="-711 24.8 512 512" style="enable-background:new -711 24.8 512 512;" xml:space="preserve">
<style type="text/css">
	.st0{fill:#444444;}
</style>
<g>
	<g transform="translate(1.000000, 1.000000)">
		<path class="st0" d="M-426.9,449.3l-30.2,51.8l-30.2-51.8l15.1-105.9h28.1L-426.9,449.3z"/>
		<path class="st0" d="M-534.9,503.3c-54-71.3-36.7-185.8-43.2-192.3c-131.8,0-133.9,192.3-133.9,192.3H-534.9z"/>
		<path class="st0" d="M-372.9,503.3H-200c0,0,0-192.3-118.8-192.3C-323.2,315.4-318.9,429.9-372.9,503.3z"/>
		<path class="st0" d="M-455,308.9c-51.8,0-97.2-103.7-97.2-155.5c0-54,45.4-97.2,97.2-97.2s95.1,43.2,95.1,97.2
			C-359.9,205.2-403.1,308.9-455,308.9z"/>
	</g>
</g>
</svg>
