<?xml version="1.0" encoding="utf-8"?>
<!-- Generator: Adobe Illustrator 19.1.0, SVG Export Plug-In . SVG Version: 6.00 Build 0)  -->
<svg version="1.1" id="Vrstva_1" xmlns="http://www.w3.org/2000/svg" xmlns:xlink="http://www.w3.org/1999/xlink" x="0px" y="0px"
	 viewBox="-711 24.9 512 512" style="enable-background:new -711 24.9 512 512;" xml:space="preserve">
<style type="text/css">
	.st0{fill:#444444;}
</style>
<g>
	<g transform="translate(0.000000, 3.000000)">
		<path class="st0" d="M-393.7,344.1c-13,17.4-58.7,23.9-58.7,23.9s-45.6-4.3-60.8-21.7c-65.2,0-99.9,93.4-99.9,93.4h319.4
			C-293.7,437.5-319.8,344.1-393.7,344.1L-393.7,344.1z"/>
		<path class="st0" d="M-391.5,209.4c0,34.8-28.2,99.9-63,99.9s-63-65.2-63-99.9s28.2-60.8,63-60.8
			C-419.7,148.6-391.5,176.8-391.5,209.4L-391.5,209.4z"/>
		<path class="st0" d="M-256.8,278.9c-13,19.6-50,28.2-50,28.2s-43.5-8.7-56.5-28.2c0,0,0,21.7-19.6,45.6
			c58.7-6.5,82.6,47.8,82.6,47.8h99.9C-198.1,372.4-191.6,278.9-256.8,278.9L-256.8,278.9z"/>
		<path class="st0" d="M-261.1,166c0,28.2-21.7,80.4-47.8,80.4c-26.1,0-47.8-52.1-47.8-80.4s21.7-50,47.8-50
			C-282.8,116-261.1,137.7-261.1,166L-261.1,166z"/>
		<path class="st0" d="M-650,278.9c13,17.4,50,28.2,50,28.2s43.5-8.7,56.5-28.2c0,0,0,21.7,19.6,45.6c-58.7-6.5-84.7,47.8-84.7,47.8
			h-102.1C-710.9,372.4-717.4,278.9-650,278.9L-650,278.9z"/>
		<path class="st0" d="M-647.8,166c0,26.1,21.7,78.2,47.8,78.2s47.8-52.1,47.8-78.2s-21.7-47.8-47.8-47.8
			C-626.1,118.2-647.8,139.9-647.8,166L-647.8,166z"/>
	</g>
</g>
</svg>
