<?xml version="1.0" encoding="UTF-8"?>
<svg width="512px" height="319px" viewBox="0 0 512 319" version="1.1" xmlns="http://www.w3.org/2000/svg" xmlns:xlink="http://www.w3.org/1999/xlink">
    <!-- Generator: Sketch 55.2 (78181) - https://sketchapp.com -->
    <title>Icon_Customers</title>
    <desc>Created with Sketch.</desc>
    <g id="Page-1" stroke="none" stroke-width="1" fill="none" fill-rule="evenodd">
        <g id="Artboard" transform="translate(0.000000, -97.000000)" fill="#000000">
            <path d="M349.090909,233.420225 C387.723636,233.420225 418.676364,202.953041 418.676364,165.210112 C418.676364,127.467184 387.723636,97 349.090909,97 C310.458182,97 279.272727,127.467184 279.272727,165.210112 C279.272727,202.953041 310.458182,233.420225 349.090909,233.420225 L349.090909,233.420225 Z M162.909091,233.420225 C201.541818,233.420225 232.494545,202.953041 232.494545,165.210112 C232.494545,127.467184 201.541818,97 162.909091,97 C124.276364,97 93.0909091,127.467184 93.0909091,165.210112 C93.0909091,202.953041 124.276364,233.420225 162.909091,233.420225 L162.909091,233.420225 Z M162.909091,278.893633 C108.683636,278.893633 0,305.495577 0,358.472097 L0,415.313858 L325.818182,415.313858 L325.818182,358.472097 C325.818182,305.495577 217.134545,278.893633 162.909091,278.893633 L162.909091,278.893633 Z M349.090909,278.893633 C342.341818,278.893633 334.661818,279.348367 326.516364,280.030468 C353.512727,299.1293 372.363636,324.821775 372.363636,358.472097 L372.363636,415.313858 L512,415.313858 L512,358.472097 C512,305.495577 403.316364,278.893633 349.090909,278.893633 L349.090909,278.893633 Z" id="Icon_Customers"></path>
        </g>
    </g>
</svg>