<?xml version="1.0" encoding="utf-8"?>
<!-- Generator: Adobe Illustrator 19.1.0, SVG Export Plug-In . SVG Version: 6.00 Build 0)  -->
<svg version="1.1" id="Vrstva_1" xmlns="http://www.w3.org/2000/svg" xmlns:xlink="http://www.w3.org/1999/xlink" x="0px" y="0px"
	 viewBox="0 0 512 512" style="enable-background:new 0 0 512 512;" xml:space="preserve">
<style type="text/css">
	.st0{fill-rule:evenodd;clip-rule:evenodd;fill:#32454E;}
</style>
<g id="phone_4">
	<g>
		<path class="st0" d="M214.7,107.5c2.4-18.8-16.7-46.2-30.4-63.6c-13.7-17.4-34.8-47.8-63.7-43.5c-11.9,1.8-22,5.9-32,12.3
			l99.8,126.9C200.5,129.2,213.3,118.8,214.7,107.5z M331.1,366.1c-12.7,3.6-39.6,4.7-56-10.3c-15.7-14.4-40.5-41.2-60.6-65.7
			c-19.1-25.3-39.2-55.6-49.5-74.2c-10.7-19.3-3-44.9,3.6-56.1c1.3-2.2,2.9-4.3,4.8-6.4L72.3,24.8c-1.9,1.6-3.9,3.3-5.8,5.1
			C47.8,46.6,19.6,86,41.4,156.9C57.5,209.5,92,271.5,138.9,334l-0.3,0.2c2.3,3,4.7,5.7,7.1,8.7c2.2,3,4.4,5.9,6.8,8.9l0.3-0.2
			c49.8,60.3,102.1,108.6,149.7,137.1c64.2,38.3,109.8,21.1,130.9,7.3c2.2-1.5,4.3-2.9,6.4-4.3L338.6,363.1
			C336,364.4,333.6,365.4,331.1,366.1z M448.6,379.8c-13.7-17.4-35.8-42.4-54.9-44.8c-11.5-1.4-24.9,8.2-37.9,17.3l99.8,126.8
			c8.8-8.1,15.3-16.7,19.9-27.6C487,424.9,462.3,397.1,448.6,379.8z"/>
	</g>
</g>
</svg>
