<?xml version="1.0" encoding="utf-8"?>
<!-- Generator: Adobe Illustrator 19.1.0, SVG Export Plug-In . SVG Version: 6.00 Build 0)  -->
<svg version="1.1" id="Vrstva_1" xmlns="http://www.w3.org/2000/svg" xmlns:xlink="http://www.w3.org/1999/xlink" x="0px" y="0px"
	 viewBox="0 0 512 512" style="enable-background:new 0 0 512 512;" xml:space="preserve">
<style type="text/css">
	.st0{fill:#32454E;}
</style>
<g id="print-machine">
	<g>
		<path class="st0" d="M151.6,447.9h209.1V343.8H151.6V447.9z M382.7,64.1H127.9v84h254.8V64.1z M0,171.5V382h124.3v-62h264.3v62
			H512V171.5H0z M59,266.9c-15.9,0-28.7-13.4-28.7-29.9c0-16.6,12.8-30,28.7-30c15.8,0,28.6,13.4,28.6,30
			C87.6,253.5,74.8,266.9,59,266.9z M146.4,267.7c-16.6,0-30-13.6-30-30.4c0-16.8,13.4-30.4,30-30.4c16.6,0,29.9,13.6,29.9,30.4
			C176.4,254.1,163,267.7,146.4,267.7z"/>
	</g>
</g>
</svg>
