<?xml version="1.0" encoding="utf-8"?>
<!-- Generator: Adobe Illustrator 19.1.0, SVG Export Plug-In . SVG Version: 6.00 Build 0)  -->
<svg version="1.1" id="Layer_1" xmlns="http://www.w3.org/2000/svg" xmlns:xlink="http://www.w3.org/1999/xlink" x="0px" y="0px"
	 viewBox="-710.7 25 512 512" style="enable-background:new -710.7 25 512 512;" xml:space="preserve">
<path d="M-464.9,312.7l-4.7,52.7h-31.6l-2.8-119.7c73.4-4.5,116.1-42,116.1-104.5c0-56.3-37.1-87.6-82.6-87.6
	c-14.9,0-28.8,3.6-35.3,9.8c3.7,11.6,6.5,21.5,6.5,42c0,28.6-23.2,50-55.7,50c-29.7,0-49.2-21.5-49.2-51.8
	c0-35.7,58.5-78.6,135.6-78.6c102.1,0,163.4,52.7,163.4,130.5C-305.2,234.1-365.5,300.2-464.9,312.7z M-486.3,537
	c-34.3,0-61.3-25.9-61.3-59c0-33,26.9-59.8,61.3-59.8c34.4,0,62.2,26.8,62.2,59.8C-424,511.1-451.9,537-486.3,537z"/>
</svg>
