<?xml version="1.0" encoding="utf-8"?>
<!-- Generator: Adobe Illustrator 19.1.0, SVG Export Plug-In . SVG Version: 6.00 Build 0)  -->
<svg version="1.1" id="Vrstva_1" xmlns="http://www.w3.org/2000/svg" xmlns:xlink="http://www.w3.org/1999/xlink" x="0px" y="0px"
	 viewBox="0 0 512 512" style="enable-background:new 0 0 512 512;" xml:space="preserve">
<style type="text/css">
	.st0{fill:#32454E;}
</style>
<g id="search_1">
	<g>
		<path class="st0" d="M384.5,190.9C384.5,85.5,298.4,0,192.2,0C86.1,0,0,85.5,0,190.9c0,105.4,86.1,190.9,192.2,190.9
			C298.4,381.8,384.5,296.4,384.5,190.9z M192.2,333.6c-79.3,0-143.7-63.9-143.7-142.7c0-78.8,64.3-142.7,143.7-142.7
			c79.4,0,143.7,63.9,143.7,142.7C335.9,269.7,271.6,333.6,192.2,333.6z M382.8,324c0,0-3.1,24.5-18.6,40
			c-15.5,15.5-39.8,18.5-39.8,18.5L453.7,512l58.3-58.5L382.8,324z M168.5,86.1c-43.8,0-79.3,35.6-79.3,79.5
			c0,25.5,14.1,32.4,14.1,14.1c0-43.9,35.5-79.5,79.4-79.5C200.9,100.2,194,86.1,168.5,86.1z"/>
	</g>
</g>
</svg>
