<?xml version="1.0" encoding="utf-8"?>
<!-- Generator: Adobe Illustrator 19.1.0, SVG Export Plug-In . SVG Version: 6.00 Build 0)  -->
<svg version="1.1" id="Vrstva_1" xmlns="http://www.w3.org/2000/svg" xmlns:xlink="http://www.w3.org/1999/xlink" x="0px" y="0px"
	 viewBox="0 0 512 512" style="enable-background:new 0 0 512 512;" xml:space="preserve">
<style type="text/css">
	.st0{fill-rule:evenodd;clip-rule:evenodd;fill:#32454E;}
</style>
<g id="headphone">
	<g>
		<path class="st0" d="M470.4,214.5l-0.3,0V179c0-98.7-83.6-178.9-186.5-178.9h-53.5C127.3,0.1,43.7,80.3,43.7,179v35.7
			c-0.8,0-1.6-0.3-2.5-0.3C18.5,214.5,0,233.4,0,256.8v86.5c0,23.4,18.5,42.3,41.2,42.3c2,0,4-0.3,6-0.6
			c18.6,55.7,86.2,98.7,170.1,106.7c8.9,11.8,32.1,20.3,59.5,20.3c35.1,0,63.6-13.8,63.6-30.9c0-17.1-28.5-30.9-63.6-30.9
			c-27.2,0-50.2,8.3-59.3,20c-75.8-7.6-136.3-45.4-150.8-93.8c9.5-7.7,15.8-19.6,15.8-33v-3.9h0.2V177.2c0-82,59.3-137,147.5-137
			h53.5c87.9,0,144.8,53.9,144.8,137.4v162.1h0.4v3.6c0,23.4,18.6,42.3,41.6,42.3c23,0,41.6-18.9,41.6-42.3v-86.5
			C512,233.4,493.4,214.5,470.4,214.5z"/>
	</g>
</g>
</svg>
