<?xml version="1.0" encoding="UTF-8" standalone="no"?>
<svg
   xmlns:dc="http://purl.org/dc/elements/1.1/"
   xmlns:cc="http://creativecommons.org/ns#"
   xmlns:rdf="http://www.w3.org/1999/02/22-rdf-syntax-ns#"
   xmlns:svg="http://www.w3.org/2000/svg"
   xmlns="http://www.w3.org/2000/svg"
   xmlns:sodipodi="http://sodipodi.sourceforge.net/DTD/sodipodi-0.dtd"
   xmlns:inkscape="http://www.inkscape.org/namespaces/inkscape"
   width="512"
   height="512"
   viewBox="0 0 512 512"
   version="1.1"
   id="svg8"
   sodipodi:docname="tag.svg"
   inkscape:version="0.92.4 (33fec40, 2019-01-16)">
  <metadata
     id="metadata14">
    <rdf:RDF>
      <cc:Work
         rdf:about="">
        <dc:format>image/svg+xml</dc:format>
        <dc:type
           rdf:resource="http://purl.org/dc/dcmitype/StillImage" />
        <dc:title></dc:title>
      </cc:Work>
    </rdf:RDF>
  </metadata>
  <defs
     id="defs12" />
  <sodipodi:namedview
     pagecolor="#ffffff"
     bordercolor="#666666"
     borderopacity="1"
     objecttolerance="10"
     gridtolerance="10"
     guidetolerance="10"
     inkscape:pageopacity="0"
     inkscape:pageshadow="2"
     inkscape:window-width="1920"
     inkscape:window-height="987"
     id="namedview10"
     showgrid="false"
     inkscape:zoom="16.857143"
     inkscape:cx="7"
     inkscape:cy="7"
     inkscape:window-x="0"
     inkscape:window-y="0"
     inkscape:window-maximized="1"
     inkscape:current-layer="svg8" />
  <g
     id="g6"
     transform="matrix(36.571429,0,0,36.571429,-3e-6,1.4986793e-4)"
     style="fill:#000000">
    <g
       id="g4"
       style="fill:#000000">
      <path
         d="M 1.4,2.45 C 1.4,1.869 1.869,1.4 2.45,1.4 3.031,1.4 3.5,1.869 3.5,2.45 3.5,3.031 3.031,3.5 2.45,3.5 1.869,3.5 1.4,3.031 1.4,2.45 Z M 7.287,0.406 A 1.391,1.391 0 0 0 6.3,0 H 1.4 C 0.63,0 0,0.63 0,1.4 v 4.9 c 0,0.385 0.154,0.735 0.413,0.994 l 6.3,6.3 C 6.965,13.846 7.315,14 7.7,14 8.085,14 8.435,13.846 8.687,13.587 l 4.9,-4.9 C 13.846,8.435 14,8.085 14,7.7 14,7.315 13.839,6.958 13.587,6.706 Z"
         id="path2"
         inkscape:connector-curvature="0"
         style="fill:#000000;fill-opacity:0.65" />
    </g>
  </g>
</svg>
