<?xml version="1.0" encoding="utf-8"?>
<!-- Generator: Adobe Illustrator 19.1.0, SVG Export Plug-In . SVG Version: 6.00 Build 0)  -->
<svg version="1.1" id="Vrstva_1" xmlns="http://www.w3.org/2000/svg" xmlns:xlink="http://www.w3.org/1999/xlink" x="0px" y="0px"
	 viewBox="-711 25 512 512" style="enable-background:new -711 25 512 512;" xml:space="preserve">
<style type="text/css">
	.st0{fill:#444444;}
</style>
<g>
	<path class="st0" d="M-570.1,44.5l-4.3,2.1l0,0C-602,18.9-648.9,21-676.6,48.7l-8.5,8.5c-27.7,27.7-29.8,74.6-2.1,102.3l2.1,2.1
		l-6.4,4.3c-25.6,25.6-25.6,63.9-2.1,87.4l266.4,266.4c23.4,23.4,63.9,23.4,87.4-2.1l121.5-121.5c25.6-25.6,25.6-63.9,2.1-87.4
		L-482.7,42.3C-506.1,18.9-546.6,18.9-570.1,44.5L-570.1,44.5z M-597.8,187.2c-27.7,0-51.1-23.4-51.1-51.1s23.4-51.1,51.1-51.1
		c27.7,0,51.1,23.4,51.1,51.1S-570.1,187.2-597.8,187.2L-597.8,187.2z"/>
</g>
</svg>
