<?xml version="1.0" encoding="utf-8"?>
<!-- Generator: Adobe Illustrator 19.1.0, SVG Export Plug-In . SVG Version: 6.00 Build 0)  -->
<svg version="1.1" id="Vrstva_1" xmlns="http://www.w3.org/2000/svg" xmlns:xlink="http://www.w3.org/1999/xlink" x="0px" y="0px"
	 viewBox="-711 25 512 512" style="enable-background:new -711 25 512 512;" xml:space="preserve">
<style type="text/css">
	.st0{fill:#444444;}
</style>
<g>
	<g transform="translate(1.000000, 0.000000)">
		<path class="st0" d="M-630.9,187.1l32,328.5c0,10.7,10.7,21.3,21.3,21.3h243.2c12.8,0,21.3-8.5,21.3-21.3l32-328.5L-630.9,187.1
			L-630.9,187.1z M-438.9,475.1h-34.1V249h34.1V475.1L-438.9,475.1z M-374.9,475.1h-34.1l32-226.1h34.1L-374.9,475.1L-374.9,475.1z
			 M-502.9,475.1h-34.1l-32-226.1h34.1L-502.9,475.1L-502.9,475.1z"/>
		<path class="st0" d="M-276.8,93.3h-100.3V48.5c0-12.8-14.9-23.5-27.7-23.5h-98.1c-12.8,0-32,6.4-32,19.2V89l-100.3,4.3
			c-12.8,0-23.5,8.5-23.5,21.3V153h405.3v-38.4C-253.3,101.8-264,93.3-276.8,93.3L-276.8,93.3z M-505.1,71.9
			c0-10.7,10.7-17.1,25.6-17.1h49.1c12.8,0,25.6,8.5,25.6,17.1v21.3h-100.3V71.9L-505.1,71.9z"/>
	</g>
</g>
</svg>
