<?xml version="1.0" encoding="UTF-8" standalone="no"?>
<svg
   xmlns:dc="http://purl.org/dc/elements/1.1/"
   xmlns:cc="http://creativecommons.org/ns#"
   xmlns:rdf="http://www.w3.org/1999/02/22-rdf-syntax-ns#"
   xmlns:svg="http://www.w3.org/2000/svg"
   xmlns="http://www.w3.org/2000/svg"
   xmlns:sodipodi="http://sodipodi.sourceforge.net/DTD/sodipodi-0.dtd"
   xmlns:inkscape="http://www.inkscape.org/namespaces/inkscape"
   width="512"
   height="512"
   viewBox="0 0 512 512"
   version="1.1"
   id="svg8"
   sodipodi:docname="trash.svg"
   inkscape:version="0.92.4 (33fec40, 2019-01-16)">
  <metadata
     id="metadata14">
    <rdf:RDF>
      <cc:Work
         rdf:about="">
        <dc:format>image/svg+xml</dc:format>
        <dc:type
           rdf:resource="http://purl.org/dc/dcmitype/StillImage" />
        <dc:title></dc:title>
      </cc:Work>
    </rdf:RDF>
  </metadata>
  <defs
     id="defs12" />
  <sodipodi:namedview
     pagecolor="#ffffff"
     bordercolor="#666666"
     borderopacity="1"
     objecttolerance="10"
     gridtolerance="10"
     guidetolerance="10"
     inkscape:pageopacity="0"
     inkscape:pageshadow="2"
     inkscape:window-width="1920"
     inkscape:window-height="987"
     id="namedview10"
     showgrid="false"
     inkscape:zoom="0.23046875"
     inkscape:cx="-2273.137"
     inkscape:cy="-344.55877"
     inkscape:window-x="0"
     inkscape:window-y="0"
     inkscape:window-maximized="1"
     inkscape:current-layer="svg8" />
  <g
     id="g6"
     transform="matrix(32,0,0,32,56.896,0)"
     style="fill:#000000">
    <g
       id="g4"
       style="fill:#000000">
      <path
         d="M 9.333,0.889 8.444,0 H 4 L 3.111,0.889 H 0 V 2.667 H 12.444 V 0.889 Z M 4.33,6.64 6.223,8.524 8.107,6.64 9.36,7.893 7.476,9.778 9.36,11.662 8.107,12.916 6.222,11.031 4.338,12.916 3.084,11.662 4.97,9.778 3.076,7.893 Z M 2.667,16 h 7.11 c 0.979,0 1.779,-0.8 1.779,-1.778 V 3.556 H 0.889 V 14.222 C 0.889,15.2 1.689,16 2.667,16 Z"
         id="path2"
         inkscape:connector-curvature="0"
         style="fill:#000000;fill-opacity:0.3" />
    </g>
  </g>
</svg>
