<?xml version="1.0" encoding="utf-8"?>
<!-- Generator: Adobe Illustrator 19.1.0, SVG Export Plug-In . SVG Version: 6.00 Build 0)  -->
<svg version="1.1" id="Layer_1" xmlns="http://www.w3.org/2000/svg" xmlns:xlink="http://www.w3.org/1999/xlink" x="0px" y="0px"
	 viewBox="-711 25 512 512" style="enable-background:new -711 25 512 512;" xml:space="preserve">
<g>
	<g>
		<path d="M-417.3,283.3c-19.5,0-35.2-15.9-35.2-35.6c0-19.6,15.8-35.6,35.2-35.6c0.4,0,0.7,0.1,1.1,0.1
			c-11.5-6.6-24.7-10.4-38.8-10.4c-43.2,0-78.4,35.5-78.4,79.2s35.1,79.2,78.4,79.2c43.2,0,78.4-35.5,78.4-79.2
			c0-10.4-2-20.3-5.7-29.4C-384.2,269.4-399.1,283.3-417.3,283.3z M-203.7,262.3c-22.7-42.1-58-77.5-102.1-102.6
			c-44.6-25.3-96.1-38.6-149.1-38.6c-53,0-104.6,13.4-149.2,38.6c-44.1,25-79.4,60.5-102.1,102.6c-6.3,11.6-6.3,25.7,0,37.4
			c22.7,42.1,58,77.5,102.1,102.6c44.6,25.3,96.2,38.6,149.2,38.6c53,0,104.6-13.4,149.1-38.6c44.1-25,79.5-60.5,102.1-102.6
			C-197.4,288-197.4,273.9-203.7,262.3z M-455,398c-63.9,0-115.9-52.5-115.9-117.1s52-117,115.9-117s115.9,52.5,115.9,117
			S-391.1,398-455,398z"/>
	</g>
</g>
</svg>
