<?xml version="1.0" encoding="UTF-8" standalone="no"?>
<svg
   xmlns:dc="http://purl.org/dc/elements/1.1/"
   xmlns:cc="http://creativecommons.org/ns#"
   xmlns:rdf="http://www.w3.org/1999/02/22-rdf-syntax-ns#"
   xmlns:svg="http://www.w3.org/2000/svg"
   xmlns="http://www.w3.org/2000/svg"
   xmlns:sodipodi="http://sodipodi.sourceforge.net/DTD/sodipodi-0.dtd"
   xmlns:inkscape="http://www.inkscape.org/namespaces/inkscape"
   height="512"
   id="Layer_1"
   version="1.1"
   viewBox="0 0 512 512"
   width="512"
   xml:space="preserve"
   inkscape:version="0.91 r13725"
   sodipodi:docname="home.svg"><metadata
     id="metadata9"><rdf:RDF><cc:Work
         rdf:about=""><dc:format>image/svg+xml</dc:format><dc:type
           rdf:resource="http://purl.org/dc/dcmitype/StillImage" /><dc:title></dc:title></cc:Work></rdf:RDF></metadata><defs
     id="defs7" /><sodipodi:namedview
     pagecolor="#ffffff"
     bordercolor="#666666"
     borderopacity="1"
     objecttolerance="10"
     gridtolerance="10"
     guidetolerance="10"
     inkscape:pageopacity="0"
     inkscape:pageshadow="2"
     inkscape:window-width="1920"
     inkscape:window-height="1027"
     id="namedview5"
     showgrid="false"
     fit-margin-top="3.5"
     fit-margin-left="3.5"
     fit-margin-right="3.5"
     fit-margin-bottom="3.5"
     inkscape:zoom="0.65186407"
     inkscape:cx="-551.19354"
     inkscape:cy="603.59306"
     inkscape:window-x="1358"
     inkscape:window-y="22"
     inkscape:window-maximized="1"
     inkscape:current-layer="Layer_1" /><path
     d="m 491.14062,224.4375 -45.76562,-45.73406 0,-112.07844 c 0,-17.35937 -14.20313,-31.5625 -31.5625,-31.5625 l -31.5625,0 c -17.35938,0 -31.5625,14.20313 -31.5625,31.5625 l 0,17.45406 -63.125,-63.06187 C 278.94594,12.87406 271.05531,3.5 256,3.5 c -15.05531,0 -22.94594,9.37406 -31.5625,17.51719 L 20.859375,224.4375 C 11.011875,234.69531 3.5,242.17563 3.5,256 c 0,17.76969 13.635,31.5625 31.5625,31.5625 l 31.5625,0 0,189.375 c 0,17.35937 14.203125,31.5625 31.5625,31.5625 l 94.6875,0 0,-157.8125 c 0,-17.35937 14.20312,-31.5625 31.5625,-31.5625 l 63.125,0 c 17.35937,0 31.5625,14.20313 31.5625,31.5625 l 0,157.8125 94.6875,0 c 17.35937,0 31.5625,-14.20313 31.5625,-31.5625 l 0,-189.375 31.5625,0 c 17.9275,0 31.5625,-13.79281 31.5625,-31.5625 0,-13.82437 -7.51187,-21.30469 -17.35938,-31.5625 z"
     id="path3"
     inkscape:connector-curvature="0" /></svg>