<?xml version="1.0" encoding="UTF-8" standalone="no"?>
<!-- Created with Inkscape (http://www.inkscape.org/) -->

<svg
   xmlns:dc="http://purl.org/dc/elements/1.1/"
   xmlns:cc="http://creativecommons.org/ns#"
   xmlns:rdf="http://www.w3.org/1999/02/22-rdf-syntax-ns#"
   xmlns:svg="http://www.w3.org/2000/svg"
   xmlns="http://www.w3.org/2000/svg"
   xmlns:sodipodi="http://sodipodi.sourceforge.net/DTD/sodipodi-0.dtd"
   xmlns:inkscape="http://www.inkscape.org/namespaces/inkscape"
   width="512"
   height="512"
   viewBox="0 0 512.00001 512.00001"
   id="svg3745"
   version="1.1"
   inkscape:version="0.91 r13725"
   sodipodi:docname="phone.svg">
  <defs
     id="defs3747" />
  <sodipodi:namedview
     id="base"
     pagecolor="#ffffff"
     bordercolor="#666666"
     borderopacity="1.0"
     inkscape:pageopacity="0.0"
     inkscape:pageshadow="2"
     inkscape:zoom="0.7"
     inkscape:cx="55.95405"
     inkscape:cy="128.25963"
     inkscape:document-units="px"
     inkscape:current-layer="layer1"
     showgrid="false"
     units="px"
     inkscape:window-width="1366"
     inkscape:window-height="715"
     inkscape:window-x="-8"
     inkscape:window-y="541"
     inkscape:window-maximized="1" />
  <metadata
     id="metadata3750">
    <rdf:RDF>
      <cc:Work
         rdf:about="">
        <dc:format>image/svg+xml</dc:format>
        <dc:type
           rdf:resource="http://purl.org/dc/dcmitype/StillImage" />
        <dc:title></dc:title>
      </cc:Work>
    </rdf:RDF>
  </metadata>
  <g
     inkscape:label="Vrstva 1"
     inkscape:groupmode="layer"
     id="layer1"
     transform="translate(0,-540.36213)">
    <path
       id="path3397"
       d="m 495.4729,922.69639 -72.98,-73.02443 c -9.78694,-9.74253 -22.93272,-15.12537 -36.94588,-15.12537 -14.59154,0 -28.38238,5.76098 -38.79218,16.1708 l -28.40458,28.40457 C 296.24054,866.84371 266.90171,849.96112 236.4508,819.51018 205.9999,789.05923 189.1395,759.80943 176.79452,737.63295 l 28.42687,-28.4268 c 21.13099,-21.19777 21.59812,-55.16315 1.00092,-75.78259 l -72.97994,-72.97994 c -9.76477,-9.78701 -22.88826,-15.1921 -36.968209,-15.1921 -14.280137,0 -27.781756,5.49407 -38.124847,15.50351 -6.272583,5.04921 -37.746718,32.80872 -49.4688824,90.06271 C -7.712805,730.96 29.989419,808.07718 138.82541,916.95764 c 121.62582,121.55906 225.45707,131.01246 254.37325,131.01246 6.02785,0 9.65349,-0.3781 10.63222,-0.4893 56.69789,-6.6285 77.006,-31.83 91.84215,-50.20294 19.19591,-23.84473 19.10695,-55.1854 -0.20013,-74.58147 l 0,0 z m -24.22284,54.89621 c -13.94648,17.28297 -27.13675,33.6096 -71.0893,38.7699 -0.0217,0 -2.4245,0.2669 -6.9621,0.2669 -25.89111,0 -119.09014,-8.8083 -232.17454,-121.82599 C 60.618311,794.35312 25.36283,725.51042 39.398289,657.09032 49.630162,607.15435 76.766869,585.93434 77.856791,585.11133 l 0.889727,-0.68954 0.822993,-0.82299 c 4.51537,-4.53762 10.47655,-7.02886 16.70465,-7.02886 5.649769,0 10.921409,2.13535 14.769489,6.00567 l 73.00216,72.97994 c 8.40795,8.38568 7.94083,22.51012 -1.00093,31.47412 l -32.16366,32.11919 -0.51161,0.55608 c -8.38566,9.23093 -7.40693,21.70936 -2.78036,29.82813 13.34591,24.02265 31.60757,56.98708 66.68505,92.08685 34.98861,34.98855 67.9085,53.22798 91.84224,66.50717 2.42449,1.35683 7.34025,3.62564 13.56833,3.62564 7.31806,0 14.03544,-3.11404 18.99569,-8.76382 l 30.2063,-30.18403 c 4.44863,-4.49312 10.4098,-6.98436 16.63787,-6.98436 5.64979,0 10.94371,2.13535 14.81396,5.98343 l 72.93551,72.95769 c 9.27534,9.36439 5.44957,23.57779 -2.02414,32.83096 l 0,0 z m 0,0 M 310.94333,622.03505 c 26.93643,3.0918 58.63307,19.4183 80.76499,41.52805 22.33224,22.35442 38.68093,54.36239 41.63932,81.56582 0.86748,8.02979 7.67393,13.99097 15.54799,13.99097 0.55609,0 1.15666,-0.0223 1.69046,-0.089 8.63037,-0.93421 14.85844,-8.67485 13.902,-17.26073 -3.7368,-34.38799 -23.15514,-72.84648 -50.62556,-100.33908 -27.2701,-27.24791 -65.30597,-46.5995 -99.31584,-50.5143 -8.60808,-1.00094 -16.37098,5.18266 -17.3719,13.79078 -0.97874,8.56364 5.18266,16.32651 13.76854,17.32746 l 0,0 z m 0,0 m -14.63602,65.61743 c 14.56925,1.66825 34.72161,12.50068 47.91178,25.6909 13.32371,13.32367 24.13387,33.65397 25.73537,48.37896 0.84528,8.0298 7.65174,13.96873 15.54808,13.96873 0.55599,0 1.15657,-0.0222 1.69047,-0.089 8.63037,-0.93421 14.81396,-8.67485 13.902,-17.26073 -2.71369,-25.13481 -19.39614,-51.8489 -34.76619,-67.15221 -15.16983,-15.19211 -41.61703,-31.78554 -66.44045,-34.65491 -8.63027,-0.9787 -16.37097,5.18266 -17.3719,13.76854 -0.95644,8.60812 5.18266,16.371 13.79084,17.34969 l 0,0 z m 0,0"
       inkscape:connector-curvature="0"
       style="fill:#030204" />
  </g>
</svg>
