<?xml version="1.0" encoding="UTF-8" standalone="no"?>
<!-- Generator: Adobe Illustrator 16.0.0, SVG Export Plug-In . SVG Version: 6.00 Build 0)  -->

<svg
   xmlns:dc="http://purl.org/dc/elements/1.1/"
   xmlns:cc="http://creativecommons.org/ns#"
   xmlns:rdf="http://www.w3.org/1999/02/22-rdf-syntax-ns#"
   xmlns:svg="http://www.w3.org/2000/svg"
   xmlns="http://www.w3.org/2000/svg"
   xmlns:sodipodi="http://sodipodi.sourceforge.net/DTD/sodipodi-0.dtd"
   xmlns:inkscape="http://www.inkscape.org/namespaces/inkscape"
   version="1.1"
   id="Capa_1"
   x="0px"
   y="0px"
   width="512"
   height="512"
   viewBox="0 0 512 512"
   xml:space="preserve"
   inkscape:version="0.91 r13725"
   sodipodi:docname="spinner.svg"><metadata
     id="metadata41"><rdf:RDF><cc:Work
         rdf:about=""><dc:format>image/svg+xml</dc:format><dc:type
           rdf:resource="http://purl.org/dc/dcmitype/StillImage" /><dc:title></dc:title></cc:Work></rdf:RDF></metadata><defs
     id="defs39" /><sodipodi:namedview
     pagecolor="#ffffff"
     bordercolor="#666666"
     borderopacity="1"
     objecttolerance="10"
     gridtolerance="10"
     guidetolerance="10"
     inkscape:pageopacity="0"
     inkscape:pageshadow="2"
     inkscape:window-width="1920"
     inkscape:window-height="1027"
     id="namedview37"
     showgrid="false"
     inkscape:zoom="1.3037281"
     inkscape:cx="477.83098"
     inkscape:cy="279.03076"
     inkscape:window-x="1912"
     inkscape:window-y="22"
     inkscape:window-maximized="1"
     inkscape:current-layer="Capa_1"
     fit-margin-top="2"
     fit-margin-left="0"
     fit-margin-right="0"
     fit-margin-bottom="0" /><g
     id="g3"
     transform="matrix(1,0,0,0.99997647,0,1.0059995)"><path
       d="m 96,255.006 c 0,-6.09 0.352,-12.098 1.015,-18.011 L 4.525,206.943 C 1.567,222.513 0,238.575 0,255.006 c 0,73.615 31.083,139.96 80.827,186.662 l 57.142,-78.647 C 111.907,334.557 96,296.641 96,255.006 Z m 320,0 c 0,41.634 -15.906,79.55 -41.969,108.014 l 57.143,78.647 C 480.916,394.967 512,328.621 512,255.006 c 0,-16.431 -1.566,-32.493 -4.523,-48.063 l -92.49,30.052 c 0.661,5.914 1.013,11.922 1.013,18.011 z M 288,98.21 c 45.967,9.331 84.771,38.371 107.225,77.913 l 92.49,-30.051 C 451.115,68.362 376.594,12.042 288,0.994 l 0,97.216 z M 116.775,176.123 C 139.228,136.581 178.033,107.541 224,98.21 L 224,0.994 C 135.406,12.042 60.885,68.362 24.287,146.071 l 92.488,30.052 z M 322.277,400.67 c -20.195,9.205 -42.635,14.336 -66.277,14.336 -23.642,0 -46.083,-5.131 -66.277,-14.334 l -57.146,78.654 c 36.603,20.184 78.668,31.68 123.423,31.68 44.756,0 86.82,-11.496 123.424,-31.68 L 322.277,400.67 Z"
       id="path5"
       inkscape:connector-curvature="0" /></g><g
     id="g7"
     transform="matrix(1.0138614,0,0,1.0138614,-3.888316,-2.9786227)" /><g
     id="g9"
     transform="matrix(1.0138614,0,0,1.0138614,-3.888316,-2.9786227)" /><g
     id="g11"
     transform="matrix(1.0138614,0,0,1.0138614,-3.888316,-2.9786227)" /><g
     id="g13"
     transform="matrix(1.0138614,0,0,1.0138614,-3.888316,-2.9786227)" /><g
     id="g15"
     transform="matrix(1.0138614,0,0,1.0138614,-3.888316,-2.9786227)" /><g
     id="g17"
     transform="matrix(1.0138614,0,0,1.0138614,-3.888316,-2.9786227)" /><g
     id="g19"
     transform="matrix(1.0138614,0,0,1.0138614,-3.888316,-2.9786227)" /><g
     id="g21"
     transform="matrix(1.0138614,0,0,1.0138614,-3.888316,-2.9786227)" /><g
     id="g23"
     transform="matrix(1.0138614,0,0,1.0138614,-3.888316,-2.9786227)" /><g
     id="g25"
     transform="matrix(1.0138614,0,0,1.0138614,-3.888316,-2.9786227)" /><g
     id="g27"
     transform="matrix(1.0138614,0,0,1.0138614,-3.888316,-2.9786227)" /><g
     id="g29"
     transform="matrix(1.0138614,0,0,1.0138614,-3.888316,-2.9786227)" /><g
     id="g31"
     transform="matrix(1.0138614,0,0,1.0138614,-3.888316,-2.9786227)" /><g
     id="g33"
     transform="matrix(1.0138614,0,0,1.0138614,-3.888316,-2.9786227)" /><g
     id="g35"
     transform="matrix(1.0138614,0,0,1.0138614,-3.888316,-2.9786227)" /></svg>