<?xml version="1.0" encoding="utf-8"?>
<!-- Generator: Adobe Illustrator 19.1.0, SVG Export Plug-In . SVG Version: 6.00 Build 0)  -->
<svg version="1.1" id="Vrstva_1" xmlns="http://www.w3.org/2000/svg" xmlns:xlink="http://www.w3.org/1999/xlink" x="0px" y="0px"
	 viewBox="0 0 24 24" style="enable-background:new 0 0 24 24;" xml:space="preserve">
<style type="text/css">
	.st0{fill:#444444;}
</style>
<g>
	<path class="st0" d="M22.8,7.3h-3.1l-1.7-5.9c-0.2-0.5-0.8-0.7-1.3-0.5L16.6,1c-0.5,0.3-0.7,0.9-0.5,1.4l1.2,4.9H6.6l1.2-4.9
		c0.2-0.5,0-1.1-0.5-1.4L7.3,1C6.8,0.7,6.2,0.9,5.9,1.4L4.2,7.3h-3C0.5,7.3,0,7.7,0,8.3c0,0,0.5,2,1.2,2h1l0.7,10.7
		c0,0,0.1,2.1,3.4,2.1h11.3c3.5,0,3.4-2.2,3.4-2.2l0.6-10.7h1.2c0.6,0,1.2-2,1.2-2C24,7.7,23.5,7.3,22.8,7.3L22.8,7.3z M4.8,10.4
		H3.1V8.7h1.7V10.4L4.8,10.4z M8.1,19.6c0,0.6-0.4,1-0.9,1h0c-0.5,0-0.9-0.5-0.9-1v-7c0-0.6,0.4-1,0.9-1h0c0.5,0,0.9,0.5,0.9,1V19.6
		L8.1,19.6z M12.9,19.3c0,0.5-0.4,1-0.9,1h0c-0.5,0-0.9-0.4-0.9-1v-6.6c0-0.5,0.4-1,0.9-1h0c0.5,0,0.9,0.4,0.9,1V19.3L12.9,19.3z
		 M17.7,19.4c0,0.5-0.4,1-0.9,1h0c-0.5,0-0.9-0.4-0.9-1v-6.7c0-0.5,0.4-1,0.9-1h0c0.5,0,0.9,0.4,0.9,1V19.4L17.7,19.4z M20.9,10.4
		h-1.8V8.7h1.8V10.4L20.9,10.4z"/>
</g>
</svg>
