<!--?xml version="1.0" encoding="UTF-8" standalone="no"?-->
<svg viewBox="0 0 17 17" version="1.1" xmlns="http://www.w3.org/2000/svg" xmlns:xlink="http://www.w3.org/1999/xlink" class="si-glyph si-glyph-calendar-1">
    <!-- Generator: Sketch 3.0.3 (7891) - http://www.bohemiancoding.com/sketch -->
    <title>1115</title>
    
    <defs></defs>
    <g stroke="none" stroke-width="1" fill="none" fill-rule="evenodd">
        <g fill="#434343">
            <path d="M13,0.031 L13,1 L11,1 L11,0.031 L5,0.031 L5,1 L3,1 L3,0.031 L0,0.031 L0,16 L16,16 L16,0.031 L13,0.031 L13,0.031 Z M14.029,14.008 L1.955,14.008 L1.955,4.938 L14.029,4.938 L14.029,14.008 L14.029,14.008 Z" class="si-glyph-fill"></path>
            <path d="M6.027,7.957 L5.047,7.957 L5.047,7.016 L6.949,7.016 L6.949,11.954 L6.027,11.954 L6.027,7.957 L6.027,7.957 Z" class="si-glyph-fill"></path>
            <path d="M10.027,7.957 L9,7.957 L9,7.016 L10.953,7.016 L10.953,11.954 L10.027,11.954 L10.027,7.957 L10.027,7.957 Z" class="si-glyph-fill"></path>
        </g>
    </g>
</svg>