<?xml version="1.0" encoding="utf-8"?>
<!-- Generator: Adobe Illustrator 19.1.0, SVG Export Plug-In . SVG Version: 6.00 Build 0)  -->
<svg version="1.1" id="Vrstva_1" xmlns="http://www.w3.org/2000/svg" xmlns:xlink="http://www.w3.org/1999/xlink" x="0px" y="0px"
	 viewBox="0 0 24 24" style="enable-background:new 0 0 24 24;" xml:space="preserve">
<style type="text/css">
	.st0{fill:none;}
	.st1{fill:#444444;}
</style>
<g>
	<g transform="translate(1.000000, 0.000000)">
		<path class="st0" d="M20.1,5.9H2c-1.5,0-1.5,0-1.5,1.7v13.5c0,1.6,0,1.5,1.5,1.5h18.1c1.5,0,1.5,0.1,1.5-1.5V7.6
			C21.6,6,21.6,5.9,20.1,5.9L20.1,5.9z M18.5,18.1h-2.9v3h-1.4v-3H7.9v3H6.6v-3H3.5v-1.4h3.1v-3.1h-3v-1.4h3v-3h1.4v3h6.2v-3h1.4v3
			h2.9v1.4h-2.9v3.1h2.9V18.1L18.5,18.1z"/>
		<path class="st1" d="M15.6,13.6h2.9v-1.4h-2.9v-3h-1.4v3H7.9v-3H6.6v3h-3v1.4h3v3.1H3.5v1.4h3.1v3h1.4v-3h6.2v3h1.4v-3h2.9v-1.4
			h-2.9V13.6L15.6,13.6z M14.1,16.7H8v-3.1h6.1V16.7L14.1,16.7z"/>
		<path class="st1" d="M19.7,1.6h-2.7V3h-1.5V1.6h-9V3H5V1.6H2.4C0.5,1.6-1,3.1-1,5v15.5c0,1.9,1.5,3.4,3.4,3.4h17.4
			c1.9,0,3.4-1.5,3.4-3.4V5C23.1,3.1,21.6,1.6,19.7,1.6L19.7,1.6z M21.6,21.1c0,1.6,0,1.5-1.5,1.5H2c-1.5,0-1.5,0.1-1.5-1.5V7.6
			h21.1V21.1L21.6,21.1z"/>
		<rect x="5" y="0" class="st1" width="1.5" height="1.5"/>
		<rect x="15.6" y="0" class="st1" width="1.5" height="1.5"/>
	</g>
</g>
</svg>
