
<svg viewBox="0 0 17 16" version="1.1" xmlns="http://www.w3.org/2000/svg" xmlns:xlink="http://www.w3.org/1999/xlink" class="si-glyph si-glyph-calendar-3"><title>1072</title><defs></defs><g stroke="none" stroke-width="1" fill="none" fill-rule="evenodd"><g transform="translate(1.000000, 0.000000)"><path d="M14,3.902 L2,3.902 C0.973,3.902 1,3.933 1,5 L1,14 C1,15.067 0.973,15 2,15 L14,15 C15.027,15 15,15.067 15,14 L15,5 C15,3.934 15.027,3.902 14,3.902 L14,3.902 Z M12.957,12 L11,12 L11,13.998 L10.041,13.998 L10.041,12 L5.937,12 L5.937,14 L5.037,14 L5.037,12 L3,12 L3,11.048 L5.037,11.048 L5.037,9 L3.029,9 L3.029,8.071 L5.037,8.071 L5.037,6.065 L5.937,6.065 L5.937,8.071 L10.041,8.071 L10.041,6.067 L11,6.067 L11,8.071 L12.953,8.071 L12.953,9 L11,9 L11,11.048 L12.957,11.048 L12.957,12 L12.957,12 Z" class=""></path><path d="M11,9 L12.953,9 L12.953,8.071 L11,8.071 L11,6.067 L10.041,6.067 L10.041,8.071 L5.937,8.071 L5.937,6.065 L5.037,6.065 L5.037,8.071 L3.029,8.071 L3.029,9 L5.037,9 L5.037,11.048 L3,11.048 L3,12 L5.037,12 L5.037,14 L5.937,14 L5.937,12 L10.041,12 L10.041,13.998 L11,13.998 L11,12 L12.957,12 L12.957,11.048 L11,11.048 L11,9 L11,9 Z M10.025,11.048 L5.968,11.048 L5.968,9 L10.025,9 L10.025,11.048 L10.025,11.048 Z" fill="#434343" class="si-glyph-fill"></path><path d="M13.77,1.051 L12,1.051 L12,2 L11,2 L11,1.051 L5,1.051 L5,2 L4,2 L4,1.051 L2.23,1.051 C0.998,1.051 0,2.061 0,3.306 L0,13.628 C0,14.872 0.998,15.883 2.23,15.883 L13.769,15.883 C15.001,15.883 15.999,14.872 15.999,13.628 L15.999,3.306 C16,2.061 15.002,1.051 13.77,1.051 L13.77,1.051 Z M15,14 C15,15.067 15.027,15 14,15 L2,15 C0.973,15 1,15.067 1,14 L1,5 L15,5 L15,14 L15,14 Z" fill="#434343" class="si-glyph-fill"></path><rect fill="#434343" x="4" y="0" width="0.979" height="1" class="si-glyph-fill"></rect><rect fill="#434343" x="11" y="0" width="1" height="1" class="si-glyph-fill"></rect></g></g></svg>