<?xml version="1.0" encoding="utf-8"?>
<!-- Generator: Adobe Illustrator 19.1.0, SVG Export Plug-In . SVG Version: 6.00 Build 0)  -->
<svg version="1.1" id="Vrstva_1" xmlns="http://www.w3.org/2000/svg" xmlns:xlink="http://www.w3.org/1999/xlink" x="0px" y="0px"
	 viewBox="0 0 24 24" style="enable-background:new 0 0 24 24;" xml:space="preserve">
<style type="text/css">
	.st0{fill-rule:evenodd;clip-rule:evenodd;fill:#32464E;}
</style>
<g id="button-delete">
	<g>
		<path class="st0" d="M20.3,3.6C15.7-1,8.2-1,3.6,3.6C-1,8.2-1,15.7,3.6,20.4c4.6,4.6,12.1,4.6,16.8,0C25,15.7,25,8.2,20.3,3.6z
			 M17.2,15.7c0.7,0.7,1.3,1.2,0.5,2c-0.8,0.8-1.3,0.2-2-0.5L12,13.6l-3.7,3.7c-0.7,0.7-1.2,1.3-2,0.5c-0.8-0.8-0.2-1.3,0.5-2
			l3.7-3.7L6.8,8.3c-0.7-0.7-1.3-1.2-0.5-2c0.8-0.8,1.3-0.2,2,0.5l3.7,3.7l3.7-3.7c0.7-0.7,1.2-1.3,2-0.5c0.8,0.8,0.2,1.3-0.5,2
			L13.5,12L17.2,15.7z"/>
	</g>
</g>
</svg>
