<?xml version="1.0" encoding="utf-8"?>
<!-- Generator: Adobe Illustrator 19.1.0, SVG Export Plug-In . SVG Version: 6.00 Build 0)  -->
<svg version="1.1" id="Vrstva_1" xmlns="http://www.w3.org/2000/svg" xmlns:xlink="http://www.w3.org/1999/xlink" x="0px" y="0px"
	 viewBox="0 0 24 24" style="enable-background:new 0 0 24 24;" xml:space="preserve">
<style type="text/css">
	.st0{fill:#444444;}
</style>
<g>
	<path class="st0" d="M12,0C5.4,0,0,5.4,0,12c0,6.6,5.4,12,12,12c6.6,0,12-5.4,12-12C24,5.4,18.6,0,12,0L12,0z M15.5,13.5h-1.9v1.9
		c0,1.5,0.1,2.7-1.6,2.7c-1.7,0-1.6-1.2-1.6-2.7v-1.9H8.5c-1.5,0-2.7,0.1-2.7-1.6c0-1.7,1.2-1.6,2.7-1.6h1.9V8.4
		c0-1.5-0.1-2.7,1.6-2.7c1.7,0,1.6,1.2,1.6,2.7v1.9h1.9c1.5,0,2.7-0.1,2.7,1.6C18.1,13.6,17,13.5,15.5,13.5L15.5,13.5z"/>
</g>
</svg>
