<?xml version="1.0" encoding="utf-8"?>
<!-- Generator: Adobe Illustrator 19.1.0, SVG Export Plug-In . SVG Version: 6.00 Build 0)  -->
<svg version="1.1" id="Vrstva_1" xmlns="http://www.w3.org/2000/svg" xmlns:xlink="http://www.w3.org/1999/xlink" x="0px" y="0px"
	 viewBox="0 0 24 24" style="enable-background:new 0 0 24 24;" xml:space="preserve">
<style type="text/css">
	.st0{fill:#444444;}
</style>
<g>
	<path class="st0" d="M12,0C5.4,0,0,5.4,0,12c0,6.6,5.4,12,12,12c6.6,0,12-5.4,12-12C24,5.4,18.7,0,12,0L12,0z M15.4,13.4H8.6
		c-1.4,0-2.6,0.1-2.6-1.5c0-1.6,1.2-1.5,2.6-1.5h6.9c1.4,0,2.6-0.1,2.6,1.5C18,13.5,16.9,13.4,15.4,13.4L15.4,13.4z"/>
</g>
</svg>
