<!--?xml version="1.0" encoding="UTF-8" standalone="no"?-->
<svg viewBox="0 0 17 17" version="1.1" xmlns="http://www.w3.org/2000/svg" xmlns:xlink="http://www.w3.org/1999/xlink" class="si-glyph si-glyph-circle-remove">
    <!-- Generator: Sketch 3.0.3 (7891) - http://www.bohemiancoding.com/sketch -->
    <title>1046</title>
    
    <defs></defs>
    <g stroke="none" stroke-width="1" fill="none" fill-rule="evenodd">
        <path d="M8.021,1.097 C3.625,1.097 0.063,4.655 0.063,9.04 C0.063,13.428 3.625,16.985 8.021,16.985 C12.416,16.985 15.979,13.427 15.979,9.04 C15.979,4.654 12.415,1.097 8.021,1.097 L8.021,1.097 Z M10.271617,9.9995909 L5.728383,9.9995909 C4.77186126,9.9995909 4,10.0510388 4,9.00003127 C4,7.9471863 4.77186126,8.00047164 5.728383,8.00047164 L10.271617,8.00047164 C11.2281387,8.00047164 12,7.94626758 12,9.00003127 C12,10.0510388 11.2281387,9.9995909 10.271617,9.9995909 L10.271617,9.9995909 Z" fill="#434343" class="si-glyph-fill"></path>
    </g>
</svg>