<?xml version="1.0" encoding="UTF-8" standalone="no"?>
<!-- Free Icon Download www.onlinewebfonts.com -->

<svg
   xmlns:dc="http://purl.org/dc/elements/1.1/"
   xmlns:cc="http://creativecommons.org/ns#"
   xmlns:rdf="http://www.w3.org/1999/02/22-rdf-syntax-ns#"
   xmlns:svg="http://www.w3.org/2000/svg"
   xmlns="http://www.w3.org/2000/svg"
   xmlns:sodipodi="http://sodipodi.sourceforge.net/DTD/sodipodi-0.dtd"
   xmlns:inkscape="http://www.inkscape.org/namespaces/inkscape"
   version="1.1"
   id="Capa_1"
   x="0px"
   y="0px"
   width="512px"
   height="512px"
   viewBox="0 0 512 512"
   style="enable-background:new 0 0 512 512;"
   xml:space="preserve"
   inkscape:version="0.91 r13725"
   sodipodi:docname="file-xml.svg"><metadata
     id="metadata41"><rdf:RDF><cc:Work
         rdf:about=""><dc:format>image/svg+xml</dc:format><dc:type
           rdf:resource="http://purl.org/dc/dcmitype/StillImage" /><dc:title></dc:title></cc:Work></rdf:RDF></metadata><defs
     id="defs39" /><sodipodi:namedview
     pagecolor="#ffffff"
     bordercolor="#666666"
     borderopacity="1"
     objecttolerance="10"
     gridtolerance="10"
     guidetolerance="10"
     inkscape:pageopacity="0"
     inkscape:pageshadow="2"
     inkscape:window-width="1920"
     inkscape:window-height="1027"
     id="namedview37"
     showgrid="false"
     inkscape:zoom="0.4609375"
     inkscape:cx="256"
     inkscape:cy="256"
     inkscape:window-x="1358"
     inkscape:window-y="22"
     inkscape:window-maximized="1"
     inkscape:current-layer="Capa_1" /><g
     id="g3"
     transform="matrix(0.98632813,0,0,0.98632813,0.4375,7)"><path
       d="m 224,288 -32,-32 -96,96 96,96 32,-32 -64,-64 64,-64 z m 64,128 32,32 96,-96 -96,-96 -32,32 64,64 -64,64 z M 451.717,99.715 380.283,28.284 C 364.729,12.728 334,0 312,0 L 72,0 C 50,0 32,18 32,40 l 0,432 c 0,22 18,40 40,40 l 368,0 c 22,0 40,-18 40,-40 l 0,-304 c 0,-22 -12.729,-52.729 -28.283,-68.285 z m -22.627,22.628 c 1.564,1.565 3.125,3.487 4.639,5.657 L 352,128 352,46.272 c 2.17,1.515 4.092,3.075 5.656,4.64 l 71.434,71.431 z M 448,472 c 0,4.336 -3.664,8 -8,8 l -368,0 c -4.336,0 -8,-3.664 -8,-8 L 64,40 c 0,-4.336 3.664,-8 8,-8 l 240,0 c 2.416,0 5.127,0.305 8,0.852 l 0,127.148 127.148,0 c 0.547,2.873 0.852,5.583 0.852,8 l 0,304 z"
       id="path5"
       inkscape:connector-curvature="0" /></g><g
     id="g7" /><g
     id="g9" /><g
     id="g11" /><g
     id="g13" /><g
     id="g15" /><g
     id="g17" /><g
     id="g19" /><g
     id="g21" /><g
     id="g23" /><g
     id="g25" /><g
     id="g27" /><g
     id="g29" /><g
     id="g31" /><g
     id="g33" /><g
     id="g35" /></svg>