<?xml version="1.0" encoding="UTF-8" standalone="no"?>
<svg
   xmlns:osb="http://www.openswatchbook.org/uri/2009/osb"
   xmlns:dc="http://purl.org/dc/elements/1.1/"
   xmlns:cc="http://creativecommons.org/ns#"
   xmlns:rdf="http://www.w3.org/1999/02/22-rdf-syntax-ns#"
   xmlns:svg="http://www.w3.org/2000/svg"
   xmlns="http://www.w3.org/2000/svg"
   xmlns:xlink="http://www.w3.org/1999/xlink"
   xmlns:sodipodi="http://sodipodi.sourceforge.net/DTD/sodipodi-0.dtd"
   xmlns:inkscape="http://www.inkscape.org/namespaces/inkscape"
   width="512"
   height="512"
   viewBox="0 0 512 512"
   id="svg2"
   version="1.1"
   inkscape:version="0.91 r13725"
   sodipodi:docname="file.svg">
  <metadata
     id="metadata10">
    <rdf:RDF>
      <cc:Work
         rdf:about="">
        <dc:format>image/svg+xml</dc:format>
        <dc:type
           rdf:resource="http://purl.org/dc/dcmitype/StillImage" />
        <dc:title></dc:title>
      </cc:Work>
    </rdf:RDF>
  </metadata>
  <defs
     id="defs8">
    <linearGradient
       id="linearGradient5572"
       osb:paint="solid">
      <stop
         style="stop-color:#000000;stop-opacity:1;"
         offset="0"
         id="stop5574" />
    </linearGradient>
    <linearGradient
       inkscape:collect="always"
       xlink:href="#linearGradient5572"
       id="linearGradient5576"
       x1="128"
       y1="896"
       x2="1664"
       y2="896"
       gradientUnits="userSpaceOnUse"
       gradientTransform="matrix(0.28180805,0,0,0.28180805,4.5535691,2.3125)" />
  </defs>
  <sodipodi:namedview
     pagecolor="#ffffff"
     bordercolor="#666666"
     borderopacity="1"
     objecttolerance="10"
     gridtolerance="10"
     guidetolerance="10"
     inkscape:pageopacity="0"
     inkscape:pageshadow="2"
     inkscape:window-width="1366"
     inkscape:window-height="715"
     id="namedview6"
     showgrid="false"
     fit-margin-top="0"
     fit-margin-left="0"
     fit-margin-right="0"
     fit-margin-bottom="0"
     inkscape:zoom="0.64"
     inkscape:cx="125.30057"
     inkscape:cy="203.52061"
     inkscape:window-x="-8"
     inkscape:window-y="22"
     inkscape:window-maximized="1"
     inkscape:current-layer="svg2" />
  <path
     d="m 454.31921,136.45312 q 3.94533,3.94532 7.89064,10.14508 l -133.01341,0 0,-133.013449 q 6.19978,3.945411 10.14509,7.890625 z m -134.14062,46.21648 153.30358,0 0,297.5893 q 0,11.27235 -7.89063,19.16297 -7.89063,7.89063 -19.16295,7.89063 l -378.75002,0 q -11.27232,0 -19.162945,-7.89063 Q 40.625,491.53125 40.625,480.2589 l 0,-450.8928 q 0,-11.272449 7.890625,-19.162975 Q 56.40625,2.3125 67.67857,2.3125 l 225.44645,0 0,153.3036 q 0,11.27225 7.89061,19.16297 7.89063,7.89053 19.16296,7.89053 z m 45.08929,207.4107 0,-18.0357 q 0,-3.94531 -2.53627,-6.48156 -2.53628,-2.53634 -6.48159,-2.53634 l -198.39287,0 q -3.94531,0 -6.48159,2.53634 -2.53627,2.53625 -2.53627,6.48156 l 0,18.0357 q 0,3.94541 2.53627,6.48166 2.53628,2.53624 6.48159,2.53624 l 198.39287,0 q 3.94531,0 6.48159,-2.53624 2.53627,-2.53625 2.53627,-6.48166 z m 0,-72.1428 0,-18.0357 q 0,-3.94531 -2.53627,-6.48166 -2.53628,-2.53624 -6.48159,-2.53624 l -198.39287,0 q -3.94531,0 -6.48159,2.53624 -2.53627,2.53635 -2.53627,6.48166 l 0,18.0357 q 0,3.94531 2.53627,6.48156 2.53628,2.53634 6.48159,2.53634 l 198.39287,0 q 3.94531,0 6.48159,-2.53634 2.53627,-2.53625 2.53627,-6.48156 z m 0,-72.1428 0,-18.0358 q 0,-3.94531 -2.53627,-6.48156 -2.53628,-2.53624 -6.48159,-2.53624 l -198.39287,0 q -3.94531,0 -6.48159,2.53624 -2.53627,2.53625 -2.53627,6.48156 l 0,18.0358 q 0,3.94521 2.53627,6.48146 2.53628,2.53634 6.48159,2.53634 l 198.39287,0 q 3.94531,0 6.48159,-2.53634 2.53627,-2.53625 2.53627,-6.48146 z"
     id="path4"
     style="fill:url(#linearGradient5576);fill-opacity:1"
     inkscape:connector-curvature="0" />
</svg>
