<?xml version="1.0" encoding="UTF-8" standalone="no"?>
<svg
   xmlns:dc="http://purl.org/dc/elements/1.1/"
   xmlns:cc="http://creativecommons.org/ns#"
   xmlns:rdf="http://www.w3.org/1999/02/22-rdf-syntax-ns#"
   xmlns:svg="http://www.w3.org/2000/svg"
   xmlns="http://www.w3.org/2000/svg"
   xmlns:sodipodi="http://sodipodi.sourceforge.net/DTD/sodipodi-0.dtd"
   xmlns:inkscape="http://www.inkscape.org/namespaces/inkscape"
   width="512"
   height="512"
   viewBox="0 0 512 512"
   id="svg2"
   version="1.1"
   inkscape:version="0.91 r13725"
   sodipodi:docname="file-pdf.svg">
  <metadata
     id="metadata10">
    <rdf:RDF>
      <cc:Work
         rdf:about="">
        <dc:format>image/svg+xml</dc:format>
        <dc:type
           rdf:resource="http://purl.org/dc/dcmitype/StillImage" />
      </cc:Work>
    </rdf:RDF>
  </metadata>
  <defs
     id="defs8" />
  <sodipodi:namedview
     pagecolor="#ffffff"
     bordercolor="#666666"
     borderopacity="1"
     objecttolerance="10"
     gridtolerance="10"
     guidetolerance="10"
     inkscape:pageopacity="0"
     inkscape:pageshadow="2"
     inkscape:window-width="1366"
     inkscape:window-height="715"
     id="namedview6"
     showgrid="false"
     inkscape:zoom="0.4609375"
     inkscape:cx="-294.07013"
     inkscape:cy="225.7283"
     inkscape:window-x="-8"
     inkscape:window-y="22"
     inkscape:window-maximized="1"
     inkscape:current-layer="svg2" />
  <path
     d="m 463.97601,111.0303 q 7.89062,7.8906 13.52678,21.4174 5.63616,13.5267 5.63616,24.7991 l 0,324.6428 q 0,11.2724 -7.89062,19.163 -7.89063,7.8906 -19.16295,7.8906 l -378.749987,0 q -11.272324,0 -19.162954,-7.8906 -7.89062,-7.8906 -7.89062,-19.163 l 0,-450.8928 q 0,-11.2724 7.89062,-19.163 7.89063,-7.8905998 19.162954,-7.8905998 l 252.499987,0 q 11.27233,0 24.79911,5.6362001 Q 368.16128,15.2155 376.0519,23.1061 Z m -125.12277,-68.7612 0,105.9598 105.95982,0 q -2.81808,-8.1724 -6.19978,-11.5541 L 350.40737,48.4689 q -3.3817,-3.3817 -11.55413,-6.1998 z m 108.21429,430.6027 0,-288.5715 -117.23215,0 q -11.27232,0 -19.16294,-7.8906 -7.89063,-7.8906 -7.89063,-19.1629 l 0,-117.2322 -216.428557,0 0,432.8572 360.714277,0 z M 302.2182,305.7596 q 9.29966,7.327 23.67187,15.7813 16.62668,-1.9727 32.97154,-1.9727 41.42578,0 49.88002,13.8086 4.50893,6.1998 0.56362,14.654 0,0.2818 -0.28181,0.5636 l -0.56361,0.5636 0,0.2819 q -1.69085,10.7087 -20.00837,10.7087 -13.52679,0 -32.40793,-5.6362 -18.88114,-5.6362 -36.63504,-14.9358 -62.27957,6.7634 -110.46874,23.39 -43.11663,73.8337 -68.19754,73.8337 -4.22712,0 -7.89063,-1.9726 l -6.76339,-3.3817 q -0.28181,-0.2818 -1.69085,-1.409 -2.81808,-2.8181 -1.69085,-10.1451 2.53628,-11.2724 15.78125,-25.7855 13.24498,-14.5131 37.19866,-27.1944 3.94532,-2.5363 6.48159,1.6908 0.56361,0.5636 0.56361,1.1272 14.65402,-23.9536 30.15346,-55.5161 19.16295,-38.3259 29.30804,-73.8338 -6.76339,-23.1082 -8.59515,-44.9483 -1.83175,-21.8402 1.83176,-35.9306 3.09988,-11.2723 11.83593,-11.2723 l 6.19978,0 q 6.48158,0 9.86328,4.2271 5.07255,5.918 2.53627,19.163 -0.56361,1.6908 -1.12723,2.2544 0.28181,0.8455 0.28181,2.2545 l 0,8.4542 q -0.56362,34.6624 -3.94531,54.1072 15.49944,46.2165 41.14396,67.0703 z M 139.89678,421.5827 q 14.65402,-6.7634 38.6077,-44.5257 -14.37221,11.2724 -24.6582,23.6719 -10.28599,12.3996 -13.9495,20.8538 z m 112.1596,-259.2634 q -4.22712,11.836 -0.56362,37.1987 0.28181,-1.9727 1.97266,-12.3996 0,-0.8454 1.97266,-12.1177 0.2818,-1.1273 1.12723,-2.2545 -0.28181,-0.2818 -0.28181,-0.5636 0,-0.2818 -0.1409,-0.4227 -0.14091,-0.1409 -0.14091,-0.4227 -0.28181,-6.1998 -3.6635,-10.1451 0,0.2818 -0.28181,0.5636 l 0,0.5636 z m -34.9442,186.2751 q 38.04409,-15.2176 80.03348,-22.8264 -0.56361,-0.2818 -3.6635,-2.6772 -3.09989,-2.3954 -4.50893,-3.8044 -21.41741,-18.8811 -35.78962,-49.5982 -7.60881,24.2355 -23.39006,55.5162 -8.45425,15.7812 -12.68137,23.39 z m 182.04798,-4.5089 q -6.76339,-6.7634 -39.45312,-6.7634 21.41741,7.8906 34.94419,7.8906 3.94531,0 5.07255,-0.2818 0,-0.2818 -0.56362,-0.8454 z"
     id="path4"
     inkscape:connector-curvature="0"
     style="fill:#000000;fill-opacity:1" />
</svg>
