<!--?xml version="1.0" encoding="UTF-8" standalone="no"?-->
<svg viewBox="0 0 16 16" version="1.1" xmlns="http://www.w3.org/2000/svg" xmlns:xlink="http://www.w3.org/1999/xlink" class="si-glyph si-glyph-forward-page">
    <!-- Generator: Sketch 3.0.3 (7891) - http://www.bohemiancoding.com/sketch -->
    <title>88</title>
    
    <defs></defs>
    <g stroke="none" stroke-width="1" fill="none" fill-rule="evenodd">
        <g fill="#434343">
            <path d="M15.798,3.516 L11.892,0.266 C11.615,-0.022 11.299,-0.069 11.021,0.218 C11.021,0.218 11.058,2.408 11.027,2.408 C10.347,2.408 9.944,2.521 9.327,2.722 C8.505,2.993 7.755,3.428 7.119,3.99 C5.843,5.113 5.026,6.392 5.026,8.203 C5.026,9.385 5.549,8.955 5.768,8.542 C6.803,6.597 8.691,5.614 11.049,5.614 C11.079,5.614 11.048,7.76 11.048,7.76 C11.326,8.047 11.676,8.013 11.917,7.807 L15.798,4.557 C16.076,4.268 16.076,3.804 15.798,3.516 L15.798,3.516 Z" class="si-glyph-fill"></path>
            <path d="M14,8.079 L14,13.062 L0.938,13.062 L0.938,3.937 L6.153,3.937 C6.429,3.625 6.774,3.22 7.376,3.018 L0.00800000003,3.018 L0.00800000003,13.982 L14.97,13.982 L14.97,7.258 L14,8.079 L14,8.079 Z" class="si-glyph-fill"></path>
        </g>
    </g>
</svg>