<?xml version="1.0" encoding="utf-8"?>
<!-- Generator: Adobe Illustrator 19.1.0, SVG Export Plug-In . SVG Version: 6.00 Build 0)  -->
<svg version="1.1" id="Vrstva_1" xmlns="http://www.w3.org/2000/svg" xmlns:xlink="http://www.w3.org/1999/xlink" x="0px" y="0px"
	 viewBox="0 0 24 24" style="enable-background:new 0 0 24 24;" xml:space="preserve">
<style type="text/css">
	.st0{fill:#444444;}
</style>
<g>
	<g>
		<path class="st0" d="M23.7,6.8l-5.9-4.9c-0.4-0.4-0.9-0.5-1.3-0.1c0,0,0.1,3.3,0,3.3c-1,0-1.6,0.2-2.6,0.5
			c-1.2,0.4-2.4,1.1-3.3,1.9c-1.9,1.7-3.1,3.6-3.1,6.3c0,1.8,0.8,1.1,1.1,0.5c1.6-2.9,4.4-4.4,7.9-4.4c0,0,0,3.2,0,3.2
			c0.4,0.4,0.9,0.4,1.3,0.1l5.8-4.9C24.1,7.9,24.1,7.2,23.7,6.8L23.7,6.8z"/>
		<path class="st0" d="M21,13.6v7.5H1.4V7.4h7.8c0.4-0.5,0.9-1.1,1.8-1.4H0v16.4h22.4V12.4L21,13.6L21,13.6z"/>
	</g>
</g>
</svg>
