<!--?xml version="1.0" encoding="UTF-8" standalone="no"?-->
<svg viewBox="0 0 17 16" version="1.1" xmlns="http://www.w3.org/2000/svg" xmlns:xlink="http://www.w3.org/1999/xlink" class="si-glyph si-glyph-gear">
    <!-- Generator: Sketch 3.0.3 (7891) - http://www.bohemiancoding.com/sketch -->
    <title>759</title>
    
    <defs></defs>
    <g stroke="none" stroke-width="1" fill="none" fill-rule="evenodd">
        <path d="M15.969,8.969 L15.969,7.011 L13.899,7.011 C13.747,6.104 13.392,5.266 12.88,4.546 L14.343,3.083 L12.929,1.669 L11.466,3.132 C10.746,2.619 9.909,2.265 9.001,2.111 L9.001,0.042 L7.001,0.042 L7.001,2.111 C6.093,2.264 5.256,2.619 4.536,3.132 L3.073,1.669 L1.688,3.053 L3.147,4.512 C2.622,5.24 2.256,6.088 2.101,7.011 L0.032,7.011 L0.032,8.969 L2.095,8.969 C2.243,9.893 2.601,10.744 3.121,11.476 L1.658,12.939 L3.072,14.353 L4.535,12.89 C5.255,13.403 6.092,13.757 7,13.911 L7,15.98 L9,15.98 L9,13.911 C9.922,13.755 10.771,13.391 11.499,12.865 L12.957,14.323 L14.342,12.939 L12.879,11.476 C13.398,10.745 13.757,9.893 13.905,8.969 L15.969,8.969 L15.969,8.969 Z M8.021,11.062 C6.319,11.062 4.938,9.681 4.938,7.979 C4.938,6.277 6.319,4.896 8.021,4.896 C9.723,4.896 11.104,6.277 11.104,7.979 C11.104,9.681 9.723,11.062 8.021,11.062 L8.021,11.062 Z" fill="#434343" class="si-glyph-fill"></path>
    </g>
</svg>