<?xml version="1.0" encoding="utf-8"?>
<!-- Generator: Adobe Illustrator 19.1.0, SVG Export Plug-In . SVG Version: 6.00 Build 0)  -->
<svg version="1.1" id="Vrstva_1" xmlns="http://www.w3.org/2000/svg" xmlns:xlink="http://www.w3.org/1999/xlink" x="0px" y="0px"
	 viewBox="0 0 24 24" style="enable-background:new 0 0 24 24;" xml:space="preserve">
<style type="text/css">
	.st0{fill:#444444;}
</style>
<g>
	<path class="st0" d="M24,13.4v-2.9h-3.1c-0.2-1.4-0.8-2.6-1.5-3.7l2.2-2.2l-2.1-2.1l-2.2,2.2c-1.1-0.8-2.3-1.3-3.7-1.5V0h-3v3.1
		C9.1,3.3,7.9,3.9,6.8,4.7L4.6,2.4L2.5,4.5l2.2,2.2c-0.8,1.1-1.3,2.4-1.6,3.8H0v2.9h3.1c0.2,1.4,0.8,2.7,1.5,3.8l-2.2,2.2l2.1,2.1
		l2.2-2.2c1.1,0.8,2.3,1.3,3.7,1.5V24h3v-3.1c1.4-0.2,2.7-0.8,3.8-1.6l2.2,2.2l2.1-2.1l-2.2-2.2c0.8-1.1,1.3-2.4,1.5-3.8H24L24,13.4
		z M12,16.6c-2.6,0-4.6-2.1-4.6-4.6S9.5,7.3,12,7.3s4.6,2.1,4.6,4.6S14.6,16.6,12,16.6L12,16.6z"/>
</g>
</svg>
