<?xml version="1.0" encoding="utf-8"?>
<!-- Generator: Adobe Illustrator 19.1.0, SVG Export Plug-In . SVG Version: 6.00 Build 0)  -->
<svg version="1.1" id="Vrstva_1" xmlns="http://www.w3.org/2000/svg" xmlns:xlink="http://www.w3.org/1999/xlink" x="0px" y="0px"
	 viewBox="0 0 24 24" style="enable-background:new 0 0 24 24;" xml:space="preserve">
<style type="text/css">
	.st0{fill:#444444;}
</style>
<g>
	<g transform="translate(1.000000, 1.000000)">
		<path class="st0" d="M22.7,11.4L17,5.5l0-4.3l-1.5,0v2.6l-3.8-3.8c-0.4-0.4-1.1-0.4-1.5,0L-0.7,11.4c-0.4,0.4-0.4,1.1,0,1.5
			c0.4,0.4,1.1,0.4,1.5,0L11,2.7l10.2,10.2c0.2,0.2,0.5,0.3,0.8,0.3c0.3,0,0.5-0.1,0.8-0.3C23.1,12.5,23.1,11.8,22.7,11.4L22.7,11.4
			z"/>
		<path class="st0" d="M3.6,12.5V21c0,0.6,0.3,1.2,0.9,1.2h3.4l0.1-6H14l0,6h3.5c0.5,0,0.9-0.6,0.9-1.2v-8.5L11,5.2L3.6,12.5
			L3.6,12.5z"/>
	</g>
</g>
</svg>
