<?xml version="1.0" encoding="utf-8"?>
<!-- Generator: Adobe Illustrator 19.1.0, SVG Export Plug-In . SVG Version: 6.00 Build 0)  -->
<svg version="1.1" id="Vrstva_1" xmlns="http://www.w3.org/2000/svg" xmlns:xlink="http://www.w3.org/1999/xlink" x="0px" y="0px"
	 viewBox="0 0 24 24" style="enable-background:new 0 0 24 24;" xml:space="preserve">
<style type="text/css">
	.st0{fill:#444444;}
</style>
<g>
	<path class="st0" d="M12,0C5.4,0,0,5.4,0,12s5.4,12,12,12s12-5.4,12-12S18.6,0,12,0L12,0z M10.5,4.5h3v3h-3V4.5L10.5,4.5z
		 M13.6,17.8c0,1-0.7,1.9-1.5,1.9c-0.8,0-1.5-0.8-1.5-1.9v-6.8c0-1,0.7-1.9,1.5-1.9c0.8,0,1.5,0.8,1.5,1.9V17.8L13.6,17.8z"/>
</g>
</svg>
