<?xml version="1.0" encoding="utf-8"?>
<!-- Generator: Adobe Illustrator 16.0.0, SVG Export Plug-In . SVG Version: 6.00 Build 0)  -->
<!DOCTYPE svg PUBLIC "-//W3C//DTD SVG 1.1//EN" "http://www.w3.org/Graphics/SVG/1.1/DTD/svg11.dtd">
<svg version="1.1" id="Layer_1" xmlns="http://www.w3.org/2000/svg" xmlns:xlink="http://www.w3.org/1999/xlink" x="0px" y="0px"
	 width="24px" height="24px" viewBox="0 0 24 24" enable-background="new 0 0 24 24" xml:space="preserve">
<g>
	<path d="M8.326,12c0,0.076,0.018,0.148,0.022,0.223l3.982-3.913C12.221,8.3,12.112,8.288,12,8.288
		C9.974,8.288,8.326,9.953,8.326,12z"/>
	<path d="M23.782,11.124c-0.876-1.625-2.172-3.022-3.752-4.126l-2.997,2.945c0.256,0.636,0.399,1.33,0.399,2.057
		c0,3.026-2.438,5.489-5.433,5.489c-0.774,0-1.509-0.167-2.177-0.464l-1.913,1.88c1.312,0.385,2.688,0.591,4.089,0.591
		c2.486,0,4.904-0.626,6.993-1.811c2.069-1.174,3.726-2.837,4.789-4.809C24.077,12.33,24.077,11.67,23.782,11.124z"/>
	<path d="M6.568,12c0-3.026,2.437-5.488,5.432-5.488c0.643,0,1.256,0.119,1.829,0.327l1.886-1.854
		C14.518,4.669,13.268,4.504,12,4.504c-2.485,0-4.904,0.626-6.994,1.812c-2.069,1.173-3.725,2.836-4.788,4.809
		c-0.295,0.546-0.295,1.206,0,1.753c0.824,1.527,2.01,2.861,3.46,3.935l3.162-3.106C6.666,13.168,6.568,12.596,6.568,12z"/>
	<path d="M15.674,12c0-0.226-0.024-0.445-0.063-0.66l-4.368,4.292c0.245,0.052,0.498,0.081,0.758,0.081
		C14.025,15.713,15.674,14.047,15.674,12z"/>
	<polygon points="21.655,3.317 20.595,2.275 2.382,20.169 3.442,21.212 3.443,21.211 	"/>
</g>
</svg>
