<?xml version="1.0" encoding="utf-8"?>
<!-- Generator: Adobe Illustrator 19.1.0, SVG Export Plug-In . SVG Version: 6.00 Build 0)  -->
<svg version="1.1" id="Vrstva_1" xmlns="http://www.w3.org/2000/svg" xmlns:xlink="http://www.w3.org/1999/xlink" x="0px" y="0px"
	 viewBox="0 0 24 24" style="enable-background:new 0 0 24 24;" xml:space="preserve">
<style type="text/css">
	.st0{fill:#444444;}
</style>
<g>
	<g transform="translate(3.000000, 0.000000)">
		<path class="st0" d="M16.2,6c0-3.9-3.4-6-7.5-6S1.2,2.1,1.2,6c0,5,3.1,6.3,5,9.4c0.4,0.7-0.7,0.3-0.4,1h5.7c0.4-0.7-0.9-0.3-0.5-1
			C12.9,12.3,16.2,11.1,16.2,6L16.2,6z"/>
		<rect x="5.7" y="18" class="st0" width="5.9" height="1.4"/>
		<path class="st0" d="M11.6,22.5c0,0.8-0.7,1.5-1.5,1.5h-3c-0.8,0-1.5-0.7-1.5-1.5V21h5.9V22.5L11.6,22.5z"/>
	</g>
</g>
</svg>
