<?xml version="1.0" encoding="utf-8"?>
<!-- Generator: Adobe Illustrator 19.1.0, SVG Export Plug-In . SVG Version: 6.00 Build 0)  -->
<svg version="1.1" id="Vrstva_1" xmlns="http://www.w3.org/2000/svg" xmlns:xlink="http://www.w3.org/1999/xlink" x="0px" y="0px"
	 viewBox="0 0 24 24" style="enable-background:new 0 0 24 24;" xml:space="preserve">
<style type="text/css">
	.st0{fill:#444444;}
</style>
<g>
	<g transform="translate(1.000000, 1.000000)">
		<path class="st0" d="M11.1,11.7c2.4,0,4.4-3.7,4.4-6.3c0-0.4,0-0.7-0.1-1H6.7C6.7,4.7,6.6,5,6.6,5.4C6.6,8,8.6,11.7,11.1,11.7
			L11.1,11.7z"/>
		<rect x="6.6" y="-0.1" class="st0" width="8.8" height="2.9"/>
		<path class="st0" d="M15.6,14.2v7.9h7.3c0,0,0.5-8.8-6.2-8.8C16.4,13.6,16,13.9,15.6,14.2z"/>
		<path class="st0" d="M5.5,13.2c-6.1,0-6.3,8.9-6.3,8.9H14v-7.4c-1.5,0.5-3,0.6-3,0.6S6.7,15,5.5,13.2L5.5,13.2z M12.6,20.7H11
			v-1.6h1.6V20.7L12.6,20.7z M12.6,17.7H11v-1.6h1.6V17.7L12.6,17.7z"/>
	</g>
</g>
</svg>
