<?xml version="1.0" encoding="utf-8"?>
<!-- Generator: Adobe Illustrator 19.1.0, SVG Export Plug-In . SVG Version: 6.00 Build 0)  -->
<svg version="1.1" id="Vrstva_1" xmlns="http://www.w3.org/2000/svg" xmlns:xlink="http://www.w3.org/1999/xlink" x="0px" y="0px"
	 viewBox="0 0 24 24" style="enable-background:new 0 0 24 24;" xml:space="preserve">
<style type="text/css">
	.st0{fill:#444444;}
</style>
<g>
	<g transform="translate(1.000000, 1.000000)">
		<path class="st0" d="M12.3,18.6L10.9,21l-1.4-2.4l0.7-4.9h1.3L12.3,18.6z"/>
		<path class="st0" d="M7.3,21.1c-2.5-3.3-1.7-8.6-2-8.9c-6.1,0-6.2,8.9-6.2,8.9H7.3z"/>
		<path class="st0" d="M14.8,21.1h8c0,0,0-8.9-5.5-8.9C17.1,12.4,17.3,17.7,14.8,21.1z"/>
		<path class="st0" d="M11,12.1c-2.4,0-4.5-4.8-4.5-7.2c0-2.5,2.1-4.5,4.5-4.5c2.4,0,4.4,2,4.4,4.5C15.4,7.3,13.4,12.1,11,12.1z"/>
	</g>
</g>
</svg>
