<?xml version="1.0" encoding="utf-8"?>
<!-- Generator: Adobe Illustrator 19.1.0, SVG Export Plug-In . SVG Version: 6.00 Build 0)  -->
<svg version="1.1" id="Vrstva_1" xmlns="http://www.w3.org/2000/svg" xmlns:xlink="http://www.w3.org/1999/xlink" x="0px" y="0px"
	 viewBox="0 0 24 24" style="enable-background:new 0 0 24 24;" xml:space="preserve">
<style type="text/css">
	.st0{fill:#444444;}
</style>
<g>
	<g transform="translate(0.000000, 3.000000)">
		<path class="st0" d="M14.8,11.9c-0.6,0.8-2.7,1.1-2.7,1.1s-2.1-0.2-2.8-1c-3,0-4.6,4.3-4.6,4.3h14.7
			C19.4,16.2,18.2,11.9,14.8,11.9L14.8,11.9z"/>
		<path class="st0" d="M14.9,5.7c0,1.6-1.3,4.6-2.9,4.6c-1.6,0-2.9-3-2.9-4.6s1.3-2.8,2.9-2.8C13.6,2.9,14.9,4.2,14.9,5.7L14.9,5.7z
			"/>
		<path class="st0" d="M21.1,8.9c-0.6,0.9-2.3,1.3-2.3,1.3s-2-0.4-2.6-1.3c0,0,0,1-0.9,2.1c2.7-0.3,3.8,2.2,3.8,2.2l4.6,0
			C23.8,13.2,24.1,8.9,21.1,8.9L21.1,8.9z"/>
		<path class="st0" d="M20.9,3.7c0,1.3-1,3.7-2.2,3.7c-1.2,0-2.2-2.4-2.2-3.7c0-1.3,1-2.3,2.2-2.3C19.9,1.4,20.9,2.4,20.9,3.7
			L20.9,3.7z"/>
		<path class="st0" d="M3,8.9c0.6,0.8,2.3,1.3,2.3,1.3s2-0.4,2.6-1.3c0,0,0,1,0.9,2.1c-2.7-0.3-3.9,2.2-3.9,2.2l-4.7,0
			C0.2,13.2-0.1,8.9,3,8.9L3,8.9z"/>
		<path class="st0" d="M3.1,3.7c0,1.2,1,3.6,2.2,3.6c1.2,0,2.2-2.4,2.2-3.6c0-1.2-1-2.2-2.2-2.2C4.1,1.5,3.1,2.5,3.1,3.7L3.1,3.7z"
			/>
	</g>
</g>
</svg>
