
<svg viewBox="0 0 17 17" version="1.1" xmlns="http://www.w3.org/2000/svg" xmlns:xlink="http://www.w3.org/1999/xlink" class="si-glyph si-glyph-person-door-man"><title>714</title><defs></defs><g stroke="none" stroke-width="1" fill="none" fill-rule="evenodd"><g transform="translate(1.000000, 1.000000)" fill="#434343"><path d="M8.013,7.966 C9.661,7.966 10.996,5.507 10.996,3.698 C10.996,3.459 10.972,3.227 10.926,3.003 L5.098,3.003 C5.053,3.228 5.028,3.459 5.028,3.698 C5.027,5.507 6.364,7.966 8.013,7.966 L8.013,7.966 Z" class="si-glyph-fill"></path><rect x="5" y="0" width="5.943" height="1.927" class=""></rect><path d="M11.042,9.634 L11.042,14.962 L15.972,14.962 C15.972,14.962 16.288,9.047 11.766,9.047 C11.597,9.28 11.332,9.467 11.042,9.634 Z" class="si-glyph-fill"></path><path d="M4.23975721,9 C0.124430956,9 0,15 0,15 L10,15 L10,10.0154473 C9.00859889,10.3423867 8.01416287,10.4493295 8.01416287,10.4493295 C8.01416287,10.4493295 5.09863429,10.1600747 4.23975721,9 L4.23975721,9 Z M9.016,14.031 L7.969,14.031 L7.969,12.937 L9.016,12.937 L9.016,14.031 L9.016,14.031 Z M9.031,12.031 L7.953,12.031 L7.953,10.969 L9.031,10.969 L9.031,12.031 L9.031,12.031 Z" class="si-glyph-fill"></path></g></g></svg>