<!--?xml version="1.0" encoding="UTF-8" standalone="no"?-->
<svg viewBox="0 0 16 16" version="1.1" xmlns="http://www.w3.org/2000/svg" xmlns:xlink="http://www.w3.org/1999/xlink" class="si-glyph si-glyph-person-public">
    <!-- Generator: Sketch 3.0.3 (7891) - http://www.bohemiancoding.com/sketch -->
    <title>601</title>
    
    <defs></defs>
    <g stroke="none" stroke-width="1" fill="none" fill-rule="evenodd">
        <g transform="translate(0.000000, 3.000000)" fill="#434343">
            <path d="M9.855,7.053 C9.432,7.624 8.021,7.772 8.021,7.772 C8.021,7.772 6.58,7.63 6.156,7.066 C4.121,7.066 3.058,9.989 3.058,9.989 L12.984,9.989 C12.984,9.988 12.146,7.053 9.855,7.053 L9.855,7.053 Z" class="si-glyph-fill"></path>
            <path d="M9.943,2.918 C9.943,3.977 9.062,6 7.978,6 C6.89,6 6.011,3.977 6.011,2.918 C6.011,1.859 6.89,1 7.978,1 C9.062,1 9.943,1.859 9.943,2.918 L9.943,2.918 Z" class="si-glyph-fill"></path>
            <path d="M14.104,5.021 C13.733,5.596 12.577,5.902 12.577,5.902 C12.577,5.902 11.222,5.601 10.848,5.035 C10.848,5.035 10.836,5.699 10.271,6.471 C12.071,6.239 12.849,7.974 12.849,7.974 L15.98,7.98 C15.979,7.979 16.119,5.021 14.104,5.021 L14.104,5.021 Z" class="si-glyph-fill"></path>
            <path d="M13.99,1.533 C13.99,2.381 13.328,3.998 12.511,3.998 C11.691,3.998 11.03,2.381 11.03,1.533 C11.03,0.687 11.693,0 12.511,0 C13.328,0 13.99,0.688 13.99,1.533 L13.99,1.533 Z" class="si-glyph-fill"></path>
            <path d="M1.918,5.021 C2.296,5.592 3.467,5.896 3.467,5.896 C3.467,5.896 4.84,5.597 5.215,5.035 C5.215,5.035 5.229,5.695 5.801,6.461 C3.977,6.231 3.191,7.953 3.191,7.953 L0.021,7.958 C0.021,7.958 -0.122,5.021 1.918,5.021 L1.918,5.021 Z" class="si-glyph-fill"></path>
            <path d="M2.002,1.566 C2.002,2.394 2.666,3.977 3.481,3.977 C4.3,3.977 4.961,2.394 4.961,1.566 C4.961,0.737 4.299,0.065 3.481,0.065 C2.664,0.065 2.002,0.737 2.002,1.566 L2.002,1.566 Z" class="si-glyph-fill"></path>
        </g>
    </g>
</svg>