<!--?xml version="1.0" encoding="UTF-8" standalone="no"?-->
<svg viewBox="0 0 17 17" version="1.1" xmlns="http://www.w3.org/2000/svg" xmlns:xlink="http://www.w3.org/1999/xlink" class="si-glyph si-glyph-plus">
    <!-- Generator: Sketch 3.0.3 (7891) - http://www.bohemiancoding.com/sketch -->
    <title>1245</title>
    
    <defs></defs>
    <g stroke="none" stroke-width="1" fill="none" fill-rule="evenodd">
        <path d="M16,6 L12,6 L12,2 C12,1.447 11.553,1 11,1 L7,1 C6.447,1 6,1.447 6,2 L6,6 L2,6 C1.447,6 1,6.447 1,7 L1,11 C1,11.553 1.447,12 2,12 L6,12 L6,16 C6,16.553 6.447,17 7,17 L11,17 C11.553,17 12,16.553 12,16 L12,12 L16,12 C16.553,12 17,11.553 17,11 L17,7 C17,6.447 16.553,6 16,6 L16,6 Z" fill="#434343" class="si-glyph-fill"></path>
    </g>
</svg>