<?xml version="1.0" encoding="utf-8"?>
<!-- Generator: Adobe Illustrator 16.0.0, SVG Export Plug-In . SVG Version: 6.00 Build 0)  -->
<!DOCTYPE svg PUBLIC "-//W3C//DTD SVG 1.1//EN" "http://www.w3.org/Graphics/SVG/1.1/DTD/svg11.dtd">
<svg version="1.1" id="Layer_1" xmlns="http://www.w3.org/2000/svg" xmlns:xlink="http://www.w3.org/1999/xlink" x="0px" y="0px"
	 width="24px" height="24px" viewBox="0 0 24 24" enable-background="new 0 0 24 24" xml:space="preserve">
<path d="M11.853,13.486l-0.218,2.469h-1.479l-0.13-5.607c3.436-0.21,5.436-1.968,5.436-4.896c0-2.638-1.739-4.102-3.87-4.102
	c-0.696,0-1.349,0.167-1.653,0.459c0.174,0.545,0.305,1.005,0.305,1.969c0,1.338-1.088,2.343-2.609,2.343
	c-1.392,0-2.305-1.005-2.305-2.428c0-1.674,2.739-3.683,6.35-3.683c4.784,0,7.654,2.47,7.654,6.11
	C19.333,9.803,16.506,12.9,11.853,13.486z M10.852,23.99c-1.608,0-2.869-1.213-2.869-2.762c0-1.547,1.261-2.803,2.869-2.803
	c1.609,0,2.915,1.256,2.915,2.803C13.767,22.777,12.461,23.99,10.852,23.99z"/>
</svg>
