<!--?xml version="1.0" encoding="UTF-8" standalone="no"?-->
<svg viewBox="0 0 17 16" version="1.1" xmlns="http://www.w3.org/2000/svg" xmlns:xlink="http://www.w3.org/1999/xlink" class="si-glyph si-glyph-tag">
    <!-- Generator: Sketch 3.0.3 (7891) - http://www.bohemiancoding.com/sketch -->
    <title>1124</title>
    
    <defs></defs>
    <g stroke="none" stroke-width="1" fill="none" fill-rule="evenodd">
        <path d="M5.379,0.681 L5.289,0.771 L5.255,0.736 C4.401,-0.118 2.98,-0.082 2.082,0.816 L1.827,1.07 C0.931,1.967 0.894,3.388 1.749,4.243 L1.783,4.277 L1.619,4.442 C0.846,5.214 0.818,6.441 1.559,7.18 L9.884,15.508 C10.626,16.248 11.851,16.22 12.626,15.447 L16.384,11.689 C17.156,10.916 17.185,9.69 16.445,8.95 L8.117,0.622 C7.377,-0.118 6.15,-0.091 5.379,0.681 L5.379,0.681 Z M4.523,5.108 C3.645,5.108 2.931,4.393 2.931,3.508 C2.931,2.627 3.645,1.911 4.523,1.911 C5.404,1.911 6.115,2.627 6.119,3.508 C6.115,4.395 5.404,5.108 4.523,5.108 L4.523,5.108 Z" fill="#434343" class="si-glyph-fill"></path>
    </g>
</svg>