<?xml version="1.0" encoding="utf-8"?>
<!-- Generator: Adobe Illustrator 19.1.0, SVG Export Plug-In . SVG Version: 6.00 Build 0)  -->
<svg version="1.1" id="Vrstva_1" xmlns="http://www.w3.org/2000/svg" xmlns:xlink="http://www.w3.org/1999/xlink" x="0px" y="0px"
	 viewBox="0 0 24 24" style="enable-background:new 0 0 24 24;" xml:space="preserve">
<style type="text/css">
	.st0{fill:#444444;}
</style>
<g>
	<path class="st0" d="M6.6,0.9L6.4,1L6.4,1C5.1-0.3,2.9-0.2,1.6,1.1L1.2,1.5C-0.1,2.8-0.2,5,1.1,6.3l0.1,0.1L0.9,6.6
		c-1.2,1.2-1.2,3-0.1,4.1l12.5,12.5c1.1,1.1,3,1.1,4.1-0.1l5.7-5.7c1.2-1.2,1.2-3,0.1-4.1L10.7,0.8C9.6-0.3,7.7-0.3,6.6,0.9L6.6,0.9
		z M5.3,7.6c-1.3,0-2.4-1.1-2.4-2.4c0-1.3,1.1-2.4,2.4-2.4c1.3,0,2.4,1.1,2.4,2.4C7.7,6.5,6.6,7.6,5.3,7.6L5.3,7.6z"/>
</g>
</svg>
