<?xml version="1.0" encoding="utf-8"?>
<!-- Generator: Adobe Illustrator 19.1.0, SVG Export Plug-In . SVG Version: 6.00 Build 0)  -->
<svg version="1.1" id="Vrstva_1" xmlns="http://www.w3.org/2000/svg" xmlns:xlink="http://www.w3.org/1999/xlink" x="0px" y="0px"
	 viewBox="0 0 24 24" style="enable-background:new 0 0 24 24;" xml:space="preserve">
<style type="text/css">
	.st0{fill:#444444;}
</style>
<g>
	<g transform="translate(1.000000, 0.000000)">
		<path class="st0" d="M2.8,7.6L4.3,23c0,0.5,0.5,1,1,1h11.4c0.6,0,1-0.4,1-1l1.5-15.4H2.8L2.8,7.6z M11.8,21.1h-1.6V10.5h1.6V21.1
			L11.8,21.1z M14.8,21.1h-1.6l1.5-10.6h1.6L14.8,21.1L14.8,21.1z M8.8,21.1H7.2L5.7,10.5h1.6L8.8,21.1L8.8,21.1z"/>
		<path class="st0" d="M19.4,3.2h-4.7V1.1C14.7,0.5,14,0,13.4,0H8.8C8.2,0,7.3,0.3,7.3,0.9V3L2.6,3.2C2,3.2,1.5,3.6,1.5,4.2V6h19
			V4.2C20.5,3.6,20,3.2,19.4,3.2L19.4,3.2z M8.7,2.2c0-0.5,0.5-0.8,1.2-0.8h2.3c0.6,0,1.2,0.4,1.2,0.8v1H8.7L8.7,2.2L8.7,2.2z"/>
	</g>
</g>
</svg>
