<?xml version="1.0" encoding="utf-8"?>
<!-- Generator: Adobe Illustrator 16.0.0, SVG Export Plug-In . SVG Version: 6.00 Build 0)  -->
<!DOCTYPE svg PUBLIC "-//W3C//DTD SVG 1.1//EN" "http://www.w3.org/Graphics/SVG/1.1/DTD/svg11.dtd">
<svg version="1.1" id="Layer_1" xmlns="http://www.w3.org/2000/svg" xmlns:xlink="http://www.w3.org/1999/xlink" x="0px" y="0px"
	 width="24px" height="24px" viewBox="0 0 24 24" enable-background="new 0 0 24 24" xml:space="preserve">
<g>
	<g>
		<path d="M13.768,12.111c-0.912,0-1.651-0.747-1.651-1.669c0-0.921,0.739-1.669,1.651-1.669c0.017,0,0.033,0.003,0.05,0.003
			C13.281,8.467,12.661,8.288,12,8.288c-2.026,0-3.674,1.665-3.674,3.712S9.974,15.713,12,15.713c2.025,0,3.674-1.666,3.674-3.713
			c0-0.487-0.095-0.952-0.265-1.38C15.321,11.459,14.62,12.111,13.768,12.111z M23.782,11.124c-1.063-1.973-2.72-3.636-4.789-4.809
			C16.904,5.13,14.486,4.504,12,4.504c-2.485,0-4.904,0.626-6.994,1.812c-2.069,1.173-3.725,2.836-4.788,4.809
			c-0.295,0.546-0.295,1.206,0,1.753c1.063,1.972,2.719,3.635,4.788,4.809c2.09,1.185,4.509,1.811,6.994,1.811
			c2.486,0,4.904-0.626,6.993-1.811c2.069-1.174,3.726-2.837,4.789-4.809C24.077,12.33,24.077,11.67,23.782,11.124z M12,17.489
			c-2.995,0-5.432-2.463-5.432-5.489S9.005,6.512,12,6.512S17.433,8.974,17.433,12S14.995,17.489,12,17.489z"/>
	</g>
</g>
</svg>
